<svg width="63" height="63" viewBox="0 0 63 63" fill="none" xmlns="http://www.w3.org/2000/svg">
<g clip-path="url(#clip0)">
<path d="M33.5096 41.6948H50.0377C50.6575 41.6948 51.0707 41.2817 51.0707 40.6618V31.3648C51.0707 30.7449 50.6575 30.3318 50.0377 30.3318H33.5096C32.8898 30.3318 32.4766 30.7449 32.4766 31.3648V40.6618C32.4765 41.2815 32.8898 41.6948 33.5096 41.6948ZM34.5426 32.3977H49.0048V39.6288H34.5426V32.3977Z" fill="#7EA023"/>
<path d="M5.61836 28.2659H13.8825C14.5023 28.2659 14.9155 27.8527 14.9155 27.2329C14.9155 26.6131 14.5023 26.2 13.8825 26.2H5.61836C4.99855 26.2 4.58539 26.6131 4.58539 27.2329C4.58539 27.8527 4.99855 28.2659 5.61836 28.2659Z" fill="#7EA023"/>
<path d="M18.0145 28.2659H26.2786C26.8984 28.2659 27.3116 27.8527 27.3116 27.2329C27.3116 26.6131 26.8984 26.2 26.2786 26.2H18.0145C17.3947 26.2 16.9815 26.6131 16.9815 27.2329C16.9815 27.8527 17.3947 28.2659 18.0145 28.2659Z" fill="#7EA023"/>
<path d="M5.61836 32.3977H19.0475C19.6673 32.3977 20.0804 31.9846 20.0804 31.3648C20.0804 30.7449 19.6673 30.3318 19.0475 30.3318H5.61836C4.99855 30.3318 4.58539 30.7449 4.58539 31.3648C4.58539 31.9846 4.99855 32.3977 5.61836 32.3977Z" fill="#7EA023"/>
<path d="M26.2785 30.332H23.1795C22.5596 30.332 22.1465 30.7452 22.1465 31.365C22.1465 31.9848 22.5596 32.398 23.1795 32.398H26.2785C26.8983 32.398 27.3115 31.9848 27.3115 31.365C27.3115 30.7452 26.8983 30.332 26.2785 30.332Z" fill="#7EA023"/>
<path d="M61.5042 17.5224C60.7811 16.5927 59.8514 16.0761 58.715 15.9729L56.2358 15.6724V12.7705V10.7045C56.2358 8.43193 54.3764 6.57251 52.1038 6.57251H4.58525C2.31267 6.57239 0.453247 8.43181 0.453247 10.7045V12.7706V21.0347V43.7609C0.453247 45.6267 1.70702 47.2132 3.41343 47.7216C3.36137 49.8113 4.94248 51.6254 7.06459 51.8184L54.7897 57.19C54.8929 57.19 55.0996 57.19 55.2028 57.19C57.2689 57.19 59.1283 55.6405 59.3348 53.6778L62.4339 20.5182C62.5371 19.4851 62.2272 18.3487 61.5042 17.5224ZM2.51931 13.8035H54.1699V16.4894V20.0016H2.51931V13.8035ZM4.58525 8.63845H52.1037C53.24 8.63845 54.1698 9.56816 54.1698 10.7045V11.7375H2.51931V10.7045C2.51931 9.56816 3.44902 8.63845 4.58525 8.63845ZM2.51931 43.7608V22.0675H54.1699V43.7608C54.1699 44.8971 53.2402 45.8268 52.1038 45.8268H4.68863H4.58537C3.44902 45.8268 2.51931 44.8971 2.51931 43.7608ZM60.3678 20.1049L57.2688 53.2645C57.1655 54.4009 56.1324 55.2272 54.9962 55.1239L7.37438 49.7523C6.34141 49.649 5.61822 48.8226 5.51496 47.8929H52.1037C54.3763 47.8929 56.2357 46.0335 56.2357 43.7609V21.0346V17.6256L58.6117 17.8323C59.1282 17.8323 59.6446 18.1422 59.9545 18.5554C60.2646 18.9685 60.4712 19.5883 60.3678 20.1049Z" fill="#7EA023"/>
</g>
<defs>
<clipPath id="clip0">
<rect width="62" height="62" fill="white" transform="translate(0.453247 0.880859)"/>
</clipPath>
</defs>
</svg>
