<svg width="59" height="60" viewBox="0 0 59 60" fill="none" xmlns="http://www.w3.org/2000/svg">
<g clip-path="url(#clip0)">
<path d="M20.1482 45.4883C20.1335 45.4146 20.112 45.342 20.0837 45.2717C20.0554 45.2026 20.0202 45.1357 19.9795 45.0735C19.9387 45.0101 19.8911 44.9513 19.839 44.8983C19.7869 44.8453 19.7291 44.7969 19.6668 44.7554C19.6056 44.714 19.5399 44.6782 19.4708 44.6494C19.4029 44.6206 19.3315 44.5976 19.259 44.5837C19.1129 44.5538 18.9622 44.5538 18.8172 44.5837C18.7447 44.5976 18.6733 44.6206 18.6042 44.6494C18.5362 44.6782 18.4705 44.714 18.4094 44.7554C18.3471 44.7969 18.2893 44.8453 18.2372 44.8983C18.1851 44.9513 18.1375 45.0101 18.0967 45.0735C18.0548 45.1357 18.0208 45.2026 17.9925 45.2717C17.9642 45.342 17.9415 45.4146 17.9279 45.4883C17.9132 45.5621 17.9053 45.6381 17.9053 45.713C17.9053 45.7879 17.9132 45.864 17.9279 45.9378C17.9415 46.0115 17.9642 46.0841 17.9925 46.1532C18.0208 46.2235 18.0548 46.2904 18.0967 46.3526C18.1375 46.416 18.1851 46.4747 18.2372 46.5278C18.2893 46.5808 18.3471 46.6292 18.4094 46.6706C18.4705 46.7122 18.5362 46.748 18.6042 46.7768C18.6733 46.8056 18.7447 46.8286 18.8172 46.8425C18.8897 46.8574 18.9645 46.8655 19.0381 46.8655C19.1117 46.8655 19.1865 46.8574 19.259 46.8425C19.3315 46.8286 19.4029 46.8056 19.4708 46.7768C19.5399 46.748 19.6056 46.7121 19.6668 46.6706C19.7291 46.6292 19.7869 46.5808 19.839 46.5278C19.8911 46.4747 19.9387 46.416 19.9795 46.3526C20.0202 46.2904 20.0554 46.2235 20.0837 46.1532C20.112 46.0841 20.1335 46.0115 20.1482 45.9378C20.163 45.864 20.1709 45.7879 20.1709 45.713C20.1709 45.6381 20.163 45.5621 20.1482 45.4883Z" fill="#7EA023"/>
<path d="M52.7101 45.8436C52.7057 45.8321 52.7012 45.8206 52.6964 45.8094C51.6538 43.3276 49.2085 42.4103 46.3146 43.4157L38.4225 45.6358C37.9663 44.2302 36.8281 43.0341 35.2188 42.4265C35.2089 42.4229 35.1989 42.4192 35.1888 42.4157L26.5136 39.4205C25.7916 38.4711 23.5298 36.0417 19.295 36.0417C16.3355 36.0417 13.7175 38.107 12.2197 40.3581H1.73438C1.10872 40.3581 0.601562 40.874 0.601562 41.5104V56.0388C0.601562 56.6753 1.10872 57.1912 1.73438 57.1912H8.46974C9.09539 57.1912 9.60255 56.6753 9.60255 56.0388V55.0439H12.7612C13.3868 55.0439 13.894 54.528 13.894 53.8915V53.5599C15.7353 53.7233 16.3409 54.0786 18.0319 55.0705C19.3324 55.8334 21.2979 56.9863 24.8375 58.6052C24.8539 58.6127 24.8706 58.6198 24.8873 58.6265C25.5666 58.8984 26.8946 59.3254 28.5318 59.3254C29.6715 59.3254 30.9612 59.1183 32.285 58.5079L49.7293 52.1544C49.7603 52.1431 49.7909 52.1304 49.8208 52.1164C51.488 51.3361 53.9723 49.1371 52.7101 45.8436ZM7.33693 54.8864H2.86719V42.6627H7.33693V54.8864ZM11.6284 52.7391H9.60255V42.6627H11.6284V52.7391ZM48.9156 50.0026L31.4791 56.3533C31.4638 56.3588 31.4431 56.3671 31.428 56.3733C31.4127 56.3797 31.3974 56.3864 31.3823 56.3934C28.9539 57.5287 26.6456 56.849 25.7409 56.4912C22.3219 54.9262 20.497 53.8558 19.1637 53.0737C17.31 51.9864 16.4168 51.4623 13.894 51.2504V41.9692C14.9678 40.1789 17.0501 38.3463 19.2951 38.3463C23.1451 38.3463 24.7765 40.8936 24.8406 40.9964C24.9789 41.2252 25.1915 41.3977 25.4415 41.484L34.4446 44.5924C35.8824 45.1413 36.6423 46.3939 36.2931 47.6431C36.1319 48.2199 35.7594 48.6984 35.2444 48.9903C34.7339 49.2796 34.1437 49.3512 33.5811 49.1929L23.4319 45.9211C22.8352 45.7288 22.1987 46.0648 22.0098 46.6715C21.8207 47.2782 22.1511 47.9259 22.7475 48.1182L32.9144 51.3956C32.9251 51.399 32.9359 51.4024 32.9468 51.4055C33.3526 51.5229 33.7659 51.581 34.1767 51.581C34.9286 51.581 35.6723 51.3861 36.3472 51.0035C37.3909 50.412 38.1456 49.4425 38.4723 48.2734C38.4983 48.1801 38.5214 48.0867 38.5415 47.9934L47.047 45.5965C48.2754 45.1697 49.888 45.0159 50.6059 46.6979C51.3491 48.6727 49.4176 49.759 48.9156 50.0026Z" fill="#7EA023"/>
<path d="M41.2763 15.4864C41.2616 15.4126 41.2401 15.34 41.2106 15.2697C41.1823 15.2006 41.1483 15.1338 41.1064 15.0715C41.0656 15.0082 41.018 14.9494 40.9659 14.8964C40.9138 14.8434 40.8561 14.795 40.7937 14.7535C40.7326 14.712 40.6669 14.6763 40.5989 14.6475C40.5298 14.6187 40.4584 14.5956 40.3871 14.5818C40.2409 14.5518 40.0903 14.5518 39.9441 14.5818C39.8716 14.5956 39.8003 14.6187 39.7323 14.6475C39.6632 14.6763 39.5975 14.712 39.5363 14.7535C39.474 14.795 39.4162 14.8434 39.3641 14.8964C39.312 14.9494 39.2645 15.0082 39.2237 15.0715C39.1829 15.1338 39.1478 15.2006 39.1195 15.2697C39.0911 15.34 39.0685 15.4126 39.0549 15.4864C39.0402 15.5601 39.0322 15.6362 39.0322 15.7111C39.0322 15.786 39.0402 15.8621 39.0549 15.9358C39.0685 16.0096 39.0911 16.0821 39.1195 16.1513C39.1478 16.2216 39.1829 16.2884 39.2237 16.3506C39.2645 16.414 39.312 16.4728 39.3641 16.5258C39.4162 16.5788 39.474 16.6272 39.5363 16.6687C39.5975 16.7102 39.6632 16.7459 39.7323 16.7747C39.8003 16.8035 39.8716 16.8254 39.9441 16.8404C40.0166 16.8554 40.0914 16.8634 40.165 16.8634C40.2387 16.8634 40.3134 16.8554 40.3871 16.8404C40.4584 16.8254 40.5298 16.8035 40.5989 16.7747C40.6669 16.7459 40.7326 16.7102 40.7937 16.6687C40.8561 16.6272 40.9138 16.5788 40.9659 16.5258C41.018 16.4728 41.0656 16.414 41.1064 16.3506C41.1483 16.2884 41.1823 16.2216 41.2106 16.1513C41.2401 16.0821 41.2616 16.0096 41.2763 15.9358C41.2911 15.8621 41.2979 15.786 41.2979 15.7111C41.2979 15.6362 41.2911 15.5601 41.2763 15.4864Z" fill="#7EA023"/>
<path d="M57.4688 4.2333H50.7334C50.1077 4.2333 49.6006 4.7492 49.6006 5.38564V6.38057H46.442C45.8163 6.38057 45.3091 6.89648 45.3091 7.53292V7.86456C43.4679 7.70104 42.8623 7.34589 41.1713 6.35395C39.8708 5.5911 37.9053 4.43818 34.3656 2.81925C34.3492 2.81165 34.3326 2.80462 34.3158 2.79794C33.1636 2.33677 30.1438 1.42941 26.9186 2.91628L22.3602 4.57658L18.5178 0.668059C18.0754 0.218069 17.3581 0.218069 16.9158 0.668059L4.30099 13.5002C3.89295 13.9154 3.81467 14.6353 4.30099 15.13L25.8569 37.0576C26.2019 37.4086 27.0096 37.5147 27.4591 37.0576L38.9758 25.3424C39.2752 25.3687 39.5859 25.3828 39.908 25.3828C42.8676 25.3828 45.4855 23.3176 46.9832 21.0666H57.4688C58.0944 21.0666 58.6016 20.5507 58.6016 19.9143V5.38564C58.6016 4.7492 58.0944 4.2333 57.4688 4.2333ZM17.7167 3.11253L20.2986 5.73895C19.5311 6.22178 18.6438 6.48014 17.7167 6.48014C16.7895 6.48014 15.9022 6.2219 15.1348 5.73895L17.7167 3.11253ZM9.28604 16.9416L6.70414 14.315L9.28604 11.6886C9.76069 12.4693 10.0147 13.372 10.0147 14.315C10.0147 15.2581 9.76081 16.1607 9.28604 16.9416ZM26.6581 34.613L24.0766 31.987C25.6527 30.9976 27.6632 30.9976 29.2394 31.987L26.6581 34.613ZM30.8716 30.327C28.3683 28.4798 24.9479 28.4798 22.4446 30.327L10.9181 18.6016C11.8027 17.364 12.2803 15.8774 12.2803 14.315C12.2803 12.7526 11.8028 11.2661 10.9181 10.0284L13.5028 7.39925C14.7195 8.29911 16.1808 8.78494 17.7168 8.78494C19.2528 8.78494 20.7141 8.29911 21.9307 7.39925L24.3809 9.89165C23.8522 9.97105 23.3367 10.1483 22.8559 10.4208C22.0439 10.8811 21.4068 11.5703 21.0101 12.4041C19.7323 12.6448 18.5493 13.2741 17.6213 14.218C15.1036 16.7792 15.1036 20.9464 17.6214 23.5076C18.8802 24.7881 20.5337 25.4285 22.1874 25.4285C23.841 25.4285 25.4947 24.7882 26.7536 23.5076C27.5726 22.6745 28.1464 21.6505 28.4337 20.5346L32.2586 21.8551C31.828 23.8841 32.269 26.0187 33.4586 27.6954L30.8716 30.327ZM23.9843 18.9979C23.9943 19.0016 24.0042 19.0053 24.0143 19.0088L26.2795 19.7909C26.1084 20.5762 25.7213 21.2982 25.1515 21.878C23.5171 23.5404 20.8577 23.5406 19.2235 21.878C17.5891 20.2155 17.5891 17.5104 19.2235 15.8478C19.6177 15.4465 20.083 15.133 20.5899 14.9204C20.799 16.6906 22.052 18.2685 23.9843 18.9979ZM35.0908 26.0348C34.6536 25.31 34.4062 24.4827 34.3671 23.6384C34.9097 24.0375 35.5728 24.4285 36.3649 24.7388L35.0908 26.0348ZM45.309 19.4548C44.2353 21.2453 42.153 23.0779 39.908 23.0779C39.488 23.0779 39.0943 23.0475 38.7263 22.9933C38.7248 22.9931 38.7233 22.9929 38.7218 22.9926C36.2754 22.6312 34.9594 21.2168 34.5257 20.6567C34.5026 20.6222 34.4041 20.4911 34.3895 20.4694C34.2575 20.2294 34.0412 20.0365 33.7652 19.9412L24.7584 16.8316C23.3211 16.2829 22.5614 15.0309 22.9096 13.7822C22.9098 13.7814 22.91 13.7806 22.9103 13.7798C22.9106 13.7789 22.9108 13.7778 22.9111 13.7769C23.0729 13.2019 23.4447 12.7249 23.9586 12.4337C24.469 12.1444 25.0591 12.0726 25.6219 12.2313L35.7711 15.5029C36.3676 15.6954 37.0043 15.3592 37.1932 14.7525C37.3822 14.1458 37.052 13.4981 36.4555 13.3058L28.3837 10.7038L28.3132 10.6321C28.3125 10.6315 28.3119 10.6306 28.3111 10.63L24.1321 6.37896L27.724 5.07059C27.7362 5.06609 27.7511 5.06045 27.7631 5.05549C27.7662 5.05423 27.7721 5.05192 27.775 5.05065C27.7904 5.04432 27.8056 5.03763 27.8207 5.0306C30.249 3.89531 32.5572 4.57485 33.462 4.93277C36.8811 6.49777 38.7061 7.56818 40.0394 8.35027C41.8931 9.43774 42.7864 9.96171 45.309 10.1736V19.4548ZM49.6006 18.7617H47.5748V8.68526H49.6006V18.7617ZM56.3359 18.7617H51.8662V6.53798H56.3359V18.7617Z" fill="#7EA023"/>
</g>
<defs>
<clipPath id="clip0">
<rect width="58" height="59" fill="white" transform="translate(0.601562 0.328125)"/>
</clipPath>
</defs>
</svg>
