<svg width="48" height="48" viewBox="0 0 48 48" fill="none" xmlns="http://www.w3.org/2000/svg">
<g clip-path="url(#clip0)">
<path d="M27.5033 14.8786C27.4049 14.7331 27.3106 14.5861 27.2202 14.4377C27.0609 14.1763 26.697 14.1396 26.4893 14.3644C25.3661 15.5802 24.5367 16.6751 23.9383 17.5731C23.34 16.6751 22.5106 15.5802 21.3874 14.3644C21.1797 14.1395 20.8158 14.1762 20.6565 14.4377C20.5661 14.5861 20.4717 14.7332 20.3734 14.8787C20.0987 15.2852 19.799 15.6691 19.4776 16.0301C19.3217 16.2051 19.3226 16.4684 19.4791 16.6428C21.8129 19.2429 22.5527 21.0772 22.5632 21.104C22.7782 21.6772 23.3246 22.061 23.9369 22.061C24.549 22.061 25.0955 21.6854 25.3105 21.1122C25.3228 21.0806 26.0635 19.2441 28.3979 16.643C28.5544 16.4686 28.5551 16.2053 28.3993 16.0303C28.0779 15.6691 27.778 15.2852 27.5033 14.8786Z" fill="#98C02E"/>
<path d="M43.0315 27.9319H38.6254C36.1958 27.9319 34.2193 29.9085 34.2193 32.338V43.3533C34.2193 45.7828 36.1958 47.7594 38.6254 47.7594H43.0315C45.4611 47.7594 47.4376 45.7828 47.4376 43.3533V32.338C47.4376 29.9085 45.4611 27.9319 43.0315 27.9319ZM44.5002 43.3533C44.5002 44.1631 43.8413 44.822 43.0315 44.822H38.6254C37.8156 44.822 37.1567 44.1631 37.1567 43.3533V32.338C37.1567 31.5282 37.8156 30.8693 38.6254 30.8693H43.0315C43.8413 30.8693 44.5002 31.5282 44.5002 32.338V43.3533Z" fill="#98C02E"/>
<path d="M21.7353 30.8693H26.1414C26.9512 30.8693 27.6101 31.5282 27.6101 32.338C27.6101 33.1491 28.2676 33.8067 29.0788 33.8067C29.89 33.8067 30.5475 33.1491 30.5475 32.338C30.5475 29.9085 28.571 27.9319 26.1414 27.9319H21.7353C19.3057 27.9319 17.3292 29.9085 17.3292 32.338V43.3533C17.3292 45.7828 19.3057 47.7594 21.7353 47.7594H26.1414C28.571 47.7594 30.5475 45.7828 30.5475 43.3533C30.5475 42.5422 29.89 41.8846 29.0788 41.8846C28.2676 41.8846 27.6101 42.5422 27.6101 43.3533C27.6101 44.1631 26.9512 44.822 26.1414 44.822H21.7353C20.9255 44.822 20.2666 44.1631 20.2666 43.3533V32.338C20.2666 31.5282 20.9255 30.8693 21.7353 30.8693Z" fill="#98C02E"/>
<path d="M4.8452 30.8693H9.25131C10.0611 30.8693 10.72 31.5282 10.72 32.338C10.72 33.1491 11.3775 33.8067 12.1887 33.8067C12.9999 33.8067 13.6574 33.1491 13.6574 32.338C13.6574 29.9085 11.6809 27.9319 9.25131 27.9319H4.8452C2.4156 27.9319 0.439087 29.9085 0.439087 32.338V43.3533C0.439087 45.7828 2.4156 47.7594 4.8452 47.7594H9.25131C11.6809 47.7594 13.6574 45.7828 13.6574 43.3533C13.6574 42.5422 12.9999 41.8846 12.1887 41.8846C11.3775 41.8846 10.72 42.5422 10.72 43.3533C10.72 44.1631 10.0611 44.822 9.25131 44.822H4.8452C4.03539 44.822 3.3765 44.1631 3.3765 43.3533V39.3143H7.04826C7.85944 39.3143 8.51696 38.6567 8.51696 37.8456C8.51696 37.0345 7.85944 36.3769 7.04826 36.3769H3.3765V32.338C3.3765 31.5282 4.03539 30.8693 4.8452 30.8693Z" fill="#98C02E"/>
<path d="M46.4515 2.07344C46.2307 1.74675 45.8877 1.52259 45.4999 1.45126C45.4017 1.43327 43.0624 1.00735 40.3087 0.833124C36.3406 0.582067 33.6581 0.969713 32.1068 2.01809C29.0763 4.06611 27.8783 7.82526 28.9278 11.1477C29.0259 11.458 29.4108 11.5641 29.6602 11.3549C31.1175 10.1319 32.8542 8.85794 34.9183 7.58779C35.6584 7.1324 36.6437 7.41209 37.0222 8.22355C37.3398 8.90457 37.065 9.71511 36.4253 10.1095C34.307 11.4153 32.5692 12.7204 31.1494 13.9517C30.9427 14.131 30.9387 14.45 31.1393 14.6361C32.6551 16.041 34.6352 16.7863 36.6422 16.7863C38.198 16.7863 39.7699 16.3386 41.1532 15.4038C42.7044 14.3555 44.0647 12.0107 45.3115 8.23558C46.1768 5.61568 46.6542 3.28632 46.6741 3.18847C46.7524 2.80201 46.6723 2.40014 46.4515 2.07344Z" fill="#98C02E"/>
<path d="M11.419 10.0894C10.7282 9.66428 10.5128 8.75965 10.9379 8.06881C11.3632 7.37806 12.2677 7.16262 12.9586 7.58772C15.0225 8.85787 16.7594 10.1319 18.2167 11.3549C18.466 11.564 18.851 11.458 18.949 11.1477C19.9985 7.82519 18.8005 4.06604 15.77 2.01802C14.2187 0.969643 11.5357 0.582181 7.56805 0.833054C4.81441 1.00728 2.47513 1.4332 2.37682 1.45119C1.98899 1.52243 1.64605 1.74668 1.42528 2.07337C1.20452 2.40007 1.12438 2.80194 1.20287 3.1883C1.22278 3.28616 1.70011 5.61561 2.56546 8.23541C3.81229 12.0105 5.1725 14.3552 6.72372 15.4036C8.10715 16.3385 9.67867 16.7861 11.2348 16.7861C13.2416 16.7861 15.2219 16.0408 16.7376 14.6358C16.9382 14.45 16.9343 14.1309 16.7277 13.9517C15.3006 12.7142 13.5522 11.4021 11.419 10.0894Z" fill="#98C02E"/>
</g>
<defs>
<clipPath id="clip0">
<rect width="47" height="47" fill="white" transform="translate(0.438354 0.759277)"/>
</clipPath>
</defs>
</svg>
