<svg width="59" height="59" viewBox="0 0 59 59" fill="none" xmlns="http://www.w3.org/2000/svg">
<path d="M58.176 32.8143C58.08 32.6539 57.9305 32.5325 57.7538 32.4716C57.5772 32.4107 57.3847 32.4142 57.2104 32.4815L53.3588 33.9666C47.8737 36.1003 43.2973 40.0709 40.4089 45.2022C40.62 41.1795 41.7347 37.2561 43.67 33.7239C45.6053 30.1918 48.3114 27.1418 51.5871 24.8008L52.438 24.194C52.5906 24.0847 52.6996 23.9248 52.7454 23.7427C52.7913 23.5606 52.7712 23.3681 52.6886 23.1994C52.6061 23.0308 52.4664 22.8969 52.2945 22.8216C52.1226 22.7463 51.9296 22.7345 51.7497 22.7882C45.4593 24.6575 40.0163 28.6623 36.3571 34.1136C37.2291 28.2924 39.5663 22.789 43.149 18.1209L45.9638 14.4295C46.0779 14.2798 46.135 14.0944 46.1251 13.9063C46.1151 13.7183 46.0387 13.54 45.9094 13.4031C45.7802 13.2663 45.6065 13.1799 45.4195 13.1595C45.2325 13.139 45.0443 13.1857 44.8885 13.2913C39.4093 16.99 35.0018 22.0695 32.1104 28.0173C30.4748 20.1233 27.2723 12.6383 22.6926 6.006C21.415 4.15826 20.0344 2.38398 18.5574 0.691587C18.4327 0.547793 18.2605 0.453671 18.0722 0.426398C17.8839 0.399124 17.6921 0.440517 17.5317 0.543022C17.3714 0.645528 17.2532 0.802313 17.1988 0.984767C17.1443 1.16722 17.1573 1.36318 17.2352 1.53689L20.1352 8.03399C22.536 13.4052 24.1088 19.1098 24.8001 24.9531C21.9772 20.3114 18.187 16.3338 13.6881 13.2917C13.5324 13.1861 13.3442 13.1394 13.1571 13.1599C12.9701 13.1804 12.7965 13.2668 12.6672 13.4036C12.538 13.5404 12.4616 13.7188 12.4516 13.9068C12.4416 14.0948 12.4988 14.2802 12.6129 14.43L15.4277 18.1214C19.0103 22.7893 21.3475 28.2926 22.2196 34.1136C18.5605 28.6619 13.1175 24.6569 6.82692 22.7873C6.64706 22.7334 6.45391 22.745 6.28186 22.8203C6.1098 22.8955 5.97 23.0294 5.88734 23.1981C5.80468 23.3668 5.78452 23.5594 5.83045 23.7416C5.87638 23.9238 5.98542 24.0838 6.13817 24.1931L6.98959 24.7999C10.2654 27.141 12.9716 30.1911 14.9069 33.7234C16.8422 37.2557 17.9568 41.1793 18.1677 45.2022C15.2794 40.0709 10.703 36.1002 5.21787 33.9666L1.36631 32.481C1.19198 32.4138 0.999547 32.4104 0.822939 32.4713C0.646331 32.5323 0.496886 32.6536 0.400951 32.8141C0.305015 32.9745 0.268749 33.1636 0.298545 33.3482C0.328342 33.5328 0.422288 33.7009 0.563822 33.8229L5.00082 37.6449C7.59876 39.8798 9.68342 42.6502 11.1121 45.7664C12.5407 48.8826 13.2796 52.271 13.2781 55.6996V56.8786H8.1804C8.07627 56.8786 7.97315 56.8991 7.87695 56.939C7.78074 56.9789 7.69332 57.0374 7.61969 57.1111C7.54605 57.1847 7.48764 57.2722 7.44779 57.3685C7.40794 57.4648 7.38743 57.568 7.38743 57.6722C7.38743 57.7764 7.40794 57.8796 7.44779 57.9759C7.48764 58.0722 7.54605 58.1597 7.61969 58.2334C7.69332 58.3071 7.78074 58.3655 7.87695 58.4054C7.97315 58.4453 8.07627 58.4658 8.1804 58.4658H50.3967C50.607 58.4658 50.8087 58.3822 50.9574 58.2334C51.1061 58.0845 51.1897 57.8827 51.1897 57.6722C51.1897 57.4617 51.1061 57.2599 50.9574 57.1111C50.8087 56.9622 50.607 56.8786 50.3967 56.8786H45.2986C45.2409 54.2678 45.5515 51.662 46.2212 49.138C47.4996 44.6708 50.0562 40.6756 53.5758 37.6449L58.0137 33.8229C58.1551 33.7008 58.2489 33.5327 58.2786 33.3482C58.3082 33.1637 58.2719 32.9746 58.176 32.8143ZM14.864 56.8786V55.6996C14.8657 52.0427 14.0778 48.4287 12.5542 45.1049C11.0307 41.7812 8.8074 38.8262 6.03667 36.4422L5.08193 35.6201C9.02133 37.2493 12.4554 39.9004 15.0301 43.3001C17.6049 46.6998 19.2273 50.7251 19.7301 54.9613C19.8029 55.5986 19.8502 56.2378 19.8719 56.8791L14.864 56.8786ZM25.4032 56.8786H21.4638C21.4583 56.694 21.4452 56.509 21.4352 56.3245C21.298 53.6751 20.7446 51.064 19.7954 48.5871V46.5845C19.7918 42.8065 19.0349 39.0672 17.5691 35.5857C16.1033 32.1041 13.958 28.9504 11.2589 26.3091C16.1994 28.949 20.1848 33.0774 22.651 38.1097C24.4617 41.7868 25.4033 45.8313 25.4032 49.9307V56.8786ZM28.4958 56.8786H26.9887V53.5895C26.9887 52.3681 26.9887 51.1468 26.9887 49.9258V49.9226C26.9887 49.3784 26.9683 48.8406 26.9384 48.3041V48.3C26.7345 44.5369 25.783 40.8523 24.1395 37.4617C23.8164 30.721 21.6111 24.2061 17.774 18.6569C24.137 24.7863 27.9499 33.0962 28.4482 41.9208C28.4784 42.5143 28.4935 43.1083 28.4935 43.703L28.4958 56.8786ZM26.7023 28.5017C26.2991 21.2096 24.5648 14.0531 21.5852 7.38641L21.3369 6.82908C22.8116 8.95401 24.1437 11.1746 25.3244 13.4763C26.8959 16.5436 28.1939 19.7437 29.2031 23.0394C29.9621 25.5114 30.5568 28.0308 30.9835 30.5814C30.268 32.4041 29.7011 34.2817 29.2883 36.196C28.7179 33.5421 27.8504 30.9611 26.7023 28.5017ZM31.5879 56.8786H30.0813V43.7048C30.0883 39.5246 30.856 35.3805 32.3469 31.4756C34.1986 26.6374 37.0844 22.2626 40.8022 18.6574C36.9655 24.2064 34.7604 30.7209 34.4372 37.4612C32.808 40.8226 31.859 44.4732 31.6446 48.203C31.467 51.0821 31.5879 53.9949 31.5879 56.8786ZM37.1129 56.8786H33.1739V49.9226C33.175 48.8803 33.2355 47.8389 33.3551 46.8035C33.8633 42.5153 35.3979 38.4132 37.8288 34.8455C40.2597 31.2778 43.5149 28.3499 47.3182 26.3104C44.6192 28.9515 42.4739 32.1051 41.008 35.5864C39.5421 39.0676 38.7851 42.8067 38.7813 46.5845V48.5852C37.832 51.0623 37.2786 53.6736 37.1414 56.3231C37.1315 56.509 37.1183 56.694 37.1129 56.8786ZM52.5404 36.4422C47.6454 40.6777 44.5397 46.6151 43.8509 53.0544C43.74 54.3261 43.6946 55.6027 43.7149 56.8791H38.7047C38.7259 56.2372 38.7733 55.5972 38.847 54.959C39.3502 50.7233 40.9727 46.6984 43.5475 43.2991C46.1223 39.8999 49.5561 37.2491 53.4952 35.6201L52.5404 36.4422Z" fill="#98C02E"/>
</svg>
