<svg width="53" height="52" viewBox="0 0 53 52" fill="none" xmlns="http://www.w3.org/2000/svg">
<path d="M26.5698 0.363037C23.2193 0.363037 20.5032 3.05156 20.5032 6.36804C20.507 9.68291 23.2209 12.3693 26.5698 12.373C29.9203 12.373 32.6365 9.68452 32.6365 6.36804C32.6365 3.05156 29.9203 0.363037 26.5698 0.363037ZM26.5698 10.6573C24.1766 10.6573 22.2365 8.73691 22.2365 6.36804C22.2393 4.00035 24.1778 2.08154 26.5698 2.07875C28.963 2.07875 30.9031 3.99917 30.9031 6.36804C30.9031 8.73691 28.963 10.6573 26.5698 10.6573Z" fill="#98C02E"/>
<path d="M29.1697 13.231H23.9697C19.6639 13.2357 16.1744 16.6896 16.1697 20.9517V35.5352H19.6364V51.8345H21.3697V32.1038H19.6364V33.8195H17.903V20.9517C17.9068 17.6368 20.6208 14.9504 23.9697 14.9467H29.1697C32.5186 14.9504 35.2326 17.6368 35.2364 20.9517V33.8195H33.5031V32.1038H31.7697V51.8345H33.5031V35.5352H36.9697V20.9517C36.965 16.6896 33.4755 13.2357 29.1697 13.231Z" fill="#98C02E"/>
<path d="M27.4364 35.5354H25.7031V51.8345H27.4364V35.5354Z" fill="#98C02E"/>
<path d="M43.9031 8.94165C41.0312 8.94165 38.7031 11.246 38.7031 14.0887C38.7059 16.9303 41.0324 19.2331 43.9031 19.2358C46.7751 19.2358 49.1031 16.9314 49.1031 14.0887C49.1031 11.246 46.7751 8.94165 43.9031 8.94165ZM43.9031 17.5201C41.9886 17.5201 40.4365 15.9838 40.4365 14.0887C40.4365 12.1936 41.9886 10.6573 43.9031 10.6573C45.8177 10.6573 47.3698 12.1936 47.3698 14.0887C47.3698 15.9838 45.8177 17.5201 43.9031 17.5201Z" fill="#98C02E"/>
<path d="M46.5031 20.094H38.7031V21.8097H46.5031C48.8951 21.8125 50.8337 23.7313 50.8365 26.099V37.2511H49.1031V35.5354H47.3698V51.8347H49.1031V38.9669H52.5698V26.099C52.566 22.7841 49.8521 20.0977 46.5031 20.094Z" fill="#98C02E"/>
<path d="M38.703 35.5354V37.2511H35.2363V38.9668H38.703V51.8345H40.4363V35.5354H38.703Z" fill="#98C02E"/>
<path d="M44.7697 38.9666H43.0364V51.8345H44.7697V38.9666Z" fill="#98C02E"/>
<path d="M9.23639 8.94165C6.36447 8.94165 4.03638 11.246 4.03638 14.0887C4.03919 16.9303 6.36566 19.2331 9.23639 19.2358C12.1083 19.2358 14.4364 16.9314 14.4364 14.0887C14.4364 11.246 12.1083 8.94165 9.23639 8.94165ZM9.23639 17.5201C7.32181 17.5201 5.76971 15.9838 5.76971 14.0887C5.76971 12.1936 7.32181 10.6573 9.23639 10.6573C11.151 10.6573 12.7031 12.1936 12.7031 14.0887C12.7031 15.9838 11.151 17.5201 9.23639 17.5201Z" fill="#98C02E"/>
<path d="M6.63651 20.094C3.28759 20.0977 0.573616 22.7841 0.569824 26.099V38.9669H4.0365V51.8347H5.76984V35.5354H4.0365V37.2511H2.30316V26.099C2.30598 23.7313 4.2445 21.8125 6.63651 21.8097H14.4365V20.094H6.63651Z" fill="#98C02E"/>
<path d="M14.4364 37.2511V35.5354H12.7031V51.8345H14.4364V38.9668H17.9031V37.2511H14.4364Z" fill="#98C02E"/>
<path d="M10.1029 38.9666H8.36963V51.8345H10.1029V38.9666Z" fill="#98C02E"/>
</svg>
