<svg width="54" height="55" viewBox="0 0 54 55" fill="none" xmlns="http://www.w3.org/2000/svg">
<g clip-path="url(#clip0)">
<path d="M10.0938 41.8704C9.35182 41.8704 8.63853 42.0591 8.00571 42.4134C4.67219 38.0595 2.84247 32.6509 2.84247 27.1101C2.84247 13.3852 13.8014 2.21948 27.2722 2.21948C28.9098 2.21948 30.5466 2.38551 32.1374 2.71304C32.697 2.8284 33.2437 2.45926 33.3569 1.88824C33.4702 1.31723 33.1078 0.761047 32.5474 0.645279C30.822 0.290146 29.0473 0.110107 27.2722 0.110107C20.1939 0.110107 13.5389 2.91862 8.53381 8.0182C3.52866 13.1178 0.772156 19.8983 0.772156 27.1101C0.772156 33.1766 2.79395 39.0969 6.47482 43.843C6.00091 44.5644 5.74616 45.4122 5.74616 46.3001C5.74616 47.4833 6.19864 48.5957 7.01989 49.432C7.84074 50.2687 8.9325 50.7298 10.0938 50.7298C11.2551 50.7298 12.3469 50.2687 13.1682 49.432C13.9894 48.5957 14.4415 47.4829 14.4415 46.2997C14.4415 45.1168 13.9894 44.0041 13.1682 43.1677C12.3469 42.331 11.2551 41.8704 10.0938 41.8704ZM11.704 47.9406C11.2741 48.379 10.702 48.6204 10.0938 48.6204C9.48566 48.6204 8.9139 48.379 8.48367 47.9406C8.05343 47.5022 7.81647 46.9197 7.81647 46.3001C7.81647 45.68 8.05343 45.0975 8.48367 44.6591C8.9135 44.2208 9.48566 43.9798 10.0938 43.9798C10.702 43.9798 11.2737 44.2212 11.704 44.6591C12.1342 45.0975 12.3712 45.68 12.3712 46.3001C12.3712 46.9197 12.1342 47.5022 11.704 47.9406Z" fill="#98C02E"/>
<path d="M48.0687 10.376C49.194 8.65598 49.0133 6.30435 47.5248 4.78783C46.7036 3.95149 45.6118 3.49048 44.4505 3.49048C43.2892 3.49048 42.1974 3.95149 41.3762 4.78783C40.5549 5.62457 40.1029 6.73694 40.1029 7.92017C40.1029 9.10339 40.5549 10.2158 41.3762 11.0525C42.1974 11.8893 43.2892 12.3499 44.4505 12.3499C45.1925 12.3499 45.9058 12.1612 46.5386 11.8069C49.8721 16.1611 51.7019 21.5693 51.7019 27.1101C51.7019 40.8351 40.743 52.0007 27.2722 52.0007C25.6507 52.0007 24.0292 51.838 22.4534 51.5167C21.893 51.4025 21.3475 51.7729 21.2351 52.3439C21.1231 52.9154 21.4866 53.4707 22.0471 53.5853C23.7563 53.9334 25.5144 54.1101 27.2722 54.1101C34.3505 54.1101 41.0054 51.3016 46.0105 46.202C51.0157 41.1024 53.7722 34.322 53.7722 27.1101C53.7722 21.0432 51.75 15.1225 48.0687 10.376ZM42.8404 9.56111C42.4101 9.12276 42.1732 8.54021 42.1732 7.92017C42.1732 7.30054 42.4101 6.71799 42.8404 6.27963C43.2702 5.84128 43.8424 5.59985 44.4505 5.59985C45.0587 5.59985 45.6308 5.84128 46.0611 6.27963C46.9486 7.18436 46.9486 8.65639 46.0611 9.56111C45.6308 9.99905 45.0587 10.2405 44.4505 10.2405C43.842 10.2405 43.2702 9.99905 42.8404 9.56111Z" fill="#98C02E"/>
<path d="M23.0005 45.2507C23.0005 45.8333 23.4643 46.3054 24.0356 46.3054H30.5082C31.08 46.3054 31.5434 45.8333 31.5434 45.2507V43.206C32.9044 42.8328 34.2057 42.2832 35.4284 41.5655L36.8453 43.0091C37.0394 43.2069 37.3026 43.3181 37.5776 43.3181C37.8517 43.3181 38.1154 43.2069 38.3095 43.0087L42.8844 38.3442C43.2883 37.9322 43.2883 37.2644 42.8844 36.8528L41.4691 35.4108C42.1735 34.165 42.7129 32.8392 43.0793 31.4525H45.0784C45.6502 31.4525 46.1136 30.9803 46.1136 30.3978V23.8031C46.1136 23.2205 45.6502 22.7484 45.0784 22.7484H43.0789C42.7125 21.3621 42.1735 20.0363 41.4691 18.7904L42.8767 17.3563C43.0708 17.1586 43.18 16.8899 43.18 16.6102C43.1796 16.3305 43.0704 16.0618 42.8763 15.8641L38.2978 11.2029C37.8938 10.7913 37.2383 10.7913 36.834 11.2033L35.4284 12.6358C34.2057 11.9181 32.9044 11.3685 31.5434 10.9952V8.96948C31.5434 8.38693 31.08 7.91479 30.5082 7.91479H24.0356C23.4643 7.91479 23.0005 8.38693 23.0005 8.96948V10.9956C21.6398 11.3685 20.3386 11.9181 19.1158 12.6358L17.7099 11.2033C17.3059 10.7917 16.6505 10.7913 16.2461 11.2029L11.668 15.8645C11.4735 16.0623 11.3643 16.3305 11.3643 16.6102C11.3643 16.8899 11.4735 17.1586 11.6676 17.3563L13.0751 18.7904C12.3707 20.0363 11.8313 21.3616 11.465 22.7484H9.46946C8.8977 22.7484 8.4343 23.2205 8.4343 23.8027L8.43067 30.3974C8.43026 30.6771 8.53944 30.9457 8.73353 31.1435C8.92762 31.3412 9.19086 31.4525 9.46582 31.4525H11.465C11.8313 32.8392 12.3707 34.165 13.0751 35.4108L11.6599 36.8528C11.2559 37.2644 11.2555 37.9322 11.6599 38.3442L16.2348 43.0087C16.4289 43.2065 16.6921 43.3181 16.9667 43.3181H16.9671C17.2416 43.3181 17.5049 43.2069 17.699 43.0091L19.1154 41.5655C20.3386 42.2832 21.6398 42.8328 23.0005 43.206V45.2507ZM19.5214 39.3474C19.1118 39.0775 18.5728 39.136 18.2274 39.4874L16.9671 40.7716L13.8555 37.5989L15.1147 36.3156C15.4596 35.9641 15.517 35.4149 15.2522 34.9976C14.3137 33.5177 13.6538 31.8958 13.2915 30.1761C13.1887 29.6904 12.7674 29.3431 12.2793 29.3431H10.5014L10.5038 24.8578H12.2793C12.7674 24.8578 13.1887 24.5109 13.2915 24.0247C13.6538 22.3055 14.3137 20.6835 15.2522 19.2037C15.517 18.7863 15.4596 18.2371 15.1147 17.8857L13.8636 16.6106L16.9776 13.4404L18.2274 14.7142C18.5728 15.0657 19.1114 15.1237 19.5214 14.8543C20.9734 13.8981 22.5654 13.2257 24.2532 12.8566C24.7299 12.7519 25.0708 12.3222 25.0708 11.8254V10.0242H29.473V11.825C29.473 12.3222 29.8135 12.7519 30.2907 12.8562C31.978 13.2257 33.5704 13.8977 35.0225 14.8539C35.4321 15.1237 35.9711 15.0657 36.316 14.7138L37.5663 13.4404L40.6802 16.6106L39.4291 17.8853C39.0838 18.2371 39.0268 18.7863 39.2917 19.2037C40.2302 20.6835 40.8897 22.3055 41.2524 24.0247C41.3547 24.5109 41.7764 24.8578 42.2645 24.8578H44.0433V29.3431H42.2645C41.7764 29.3431 41.3551 29.6904 41.2524 30.1761C40.8901 31.8953 40.2302 33.5177 39.2917 34.9972C39.0268 35.4149 39.0842 35.9641 39.4291 36.3156L40.6883 37.5985L37.5768 40.7712L36.3164 39.4874C35.9711 39.1356 35.4321 39.0775 35.0225 39.3474C33.57 40.3036 31.978 40.9755 30.2907 41.3451C29.8135 41.4497 29.473 41.879 29.473 42.3763V44.196H25.0708V42.3763C25.0708 41.8794 24.7299 41.4497 24.2532 41.3451C22.5658 40.976 20.9738 40.3036 19.5214 39.3474Z" fill="#98C02E"/>
<path d="M35.8256 27.11C35.8256 22.3046 31.9886 18.3953 27.2722 18.3953C22.5558 18.3953 18.7188 22.3046 18.7188 27.11C18.7188 31.9155 22.5558 35.8248 27.2722 35.8248C31.9886 35.8248 35.8256 31.9155 35.8256 27.11ZM20.7891 27.11C20.7891 23.4677 23.6973 20.5046 27.2722 20.5046C30.8471 20.5046 33.7553 23.4681 33.7553 27.11C33.7553 30.752 30.8471 33.7154 27.2722 33.7154C23.6973 33.7154 20.7891 30.7524 20.7891 27.11Z" fill="#98C02E"/>
<path d="M36.8037 4.09889C37.0762 4.09889 37.3431 3.98601 37.5356 3.7899C37.7281 3.59256 37.8389 3.32065 37.8389 3.04297C37.8389 2.76694 37.7285 2.49461 37.5356 2.29727C37.3431 2.10117 37.0762 1.98828 36.8037 1.98828C36.5304 1.98828 36.2647 2.10117 36.0722 2.29727C35.8793 2.49461 35.7686 2.7657 35.7686 3.04297C35.7686 3.32147 35.8793 3.59256 36.0722 3.7899C36.2647 3.98601 36.5304 4.09889 36.8037 4.09889Z" fill="#98C02E"/>
<path d="M17.7859 50.1401C17.5138 50.1401 17.2465 50.253 17.054 50.4491C16.8615 50.6452 16.7507 50.9176 16.7507 51.1948C16.7507 51.4733 16.8615 51.7444 17.054 51.9405C17.2465 52.1366 17.5138 52.2495 17.7859 52.2495C18.058 52.2495 18.3253 52.1366 18.5178 51.9405C18.7103 51.7444 18.821 51.4721 18.821 51.1948C18.821 50.9176 18.7103 50.6452 18.5178 50.4491C18.3253 50.253 18.058 50.1401 17.7859 50.1401Z" fill="#98C02E"/>
</g>
<defs>
<clipPath id="clip0">
<rect width="53" height="54" fill="white" transform="translate(0.772156 0.110107)"/>
</clipPath>
</defs>
</svg>
