<svg width="57" height="57" viewBox="0 0 57 57" fill="none" xmlns="http://www.w3.org/2000/svg">
<path d="M45.9963 7.74219H48.0963V5.99219H43.7213C43.4892 5.99219 43.2667 6.08437 43.1026 6.24847C42.9385 6.41256 42.8463 6.63512 42.8463 6.86719V11.2422H44.5963V8.86219C49.5466 12.7917 52.8523 18.4272 53.8664 24.6656C54.8804 30.9041 53.5299 37.2965 50.079 42.5916C46.6281 47.8867 41.3253 51.7033 35.2085 53.2945C29.0917 54.8857 22.6013 54.1369 17.0076 51.1947L16.1851 52.7347C22.1329 55.8614 29.0297 56.6692 35.539 55.0014C42.0484 53.3336 47.7071 49.309 51.4186 43.7074C55.1301 38.1057 56.6303 31.3259 55.6286 24.6813C54.6268 18.0368 51.1944 12.0005 45.9963 7.74219Z" fill="#98C02E"/>
<path d="M13.0962 48.631C8.134 44.7055 4.81736 39.0677 3.79674 32.8234C2.77612 26.579 4.12517 20.1787 7.5793 14.8775C11.0334 9.57634 16.3434 5.75687 22.4679 4.16815C28.5924 2.57943 35.0895 3.33609 40.685 6.28975L41.5075 4.74975C35.5596 1.623 28.6629 0.815277 22.1535 2.48307C15.6441 4.15087 9.98546 8.17545 6.27392 13.7771C2.56239 19.3787 1.06217 26.1586 2.06394 32.8031C3.06571 39.4477 6.49814 45.4839 11.6962 49.7422H9.59622V51.4922H13.9712C14.2033 51.4922 14.4258 51.4001 14.5899 51.236C14.754 51.0719 14.8462 50.8493 14.8462 50.6172V46.2422H13.0962V48.631Z" fill="#98C02E"/>
<path d="M8.72119 28.7422C8.72119 32.7225 9.9015 36.6135 12.1129 39.923C14.3242 43.2326 17.4673 45.812 21.1447 47.3353C24.822 48.8585 28.8685 49.257 32.7724 48.4805C36.6762 47.704 40.2622 45.7872 43.0767 42.9727C45.8912 40.1582 47.808 36.5722 48.5845 32.6684C49.361 28.7645 48.9625 24.718 47.4393 21.0407C45.916 17.3633 43.3366 14.2202 40.027 12.0089C36.7175 9.7975 32.8265 8.61719 28.8462 8.61719C23.5087 8.61719 18.3898 10.7375 14.6157 14.5117C10.8415 18.2858 8.72119 23.4047 8.72119 28.7422ZM47.2212 28.7422C47.2212 32.3764 46.1435 35.929 44.1244 38.9508C42.1054 41.9725 39.2356 44.3277 35.878 45.7185C32.5204 47.1092 28.8258 47.4731 25.2614 46.7641C21.697 46.0551 18.4229 44.3051 15.8531 41.7353C13.2833 39.1655 11.5333 35.8914 10.8243 32.327C10.1153 28.7626 10.4791 25.068 11.8699 21.7104C13.2607 18.3528 15.6158 15.483 18.6376 13.4639C21.6593 11.4449 25.212 10.3672 28.8462 10.3672C33.7195 10.3672 38.3933 12.3031 41.8393 15.7491C45.2853 19.1951 47.2212 23.8688 47.2212 28.7422Z" fill="#98C02E"/>
<path d="M12.2212 28.7422C12.2212 32.0303 13.1962 35.2446 15.023 37.9785C16.8498 40.7125 19.4463 42.8434 22.4841 44.1017C25.5219 45.36 28.8646 45.6892 32.0896 45.0477C35.3145 44.4063 38.2768 42.8229 40.6018 40.4978C42.9269 38.1728 44.5103 35.2105 45.1517 31.9856C45.7932 28.7606 45.464 25.4179 44.2057 22.3801C42.9474 19.3423 40.8165 16.7458 38.0826 14.919C35.3486 13.0922 32.1343 12.1172 28.8462 12.1172C24.437 12.1172 20.2083 13.8687 17.0905 16.9865C13.9727 20.1043 12.2212 24.333 12.2212 28.7422ZM38.2174 20.6134L39.9674 18.8634C42.1999 21.3545 43.523 24.5281 43.7212 27.8672H41.0962V29.6172H43.7212C43.5264 32.947 42.213 36.1134 39.9937 38.6034L38.2437 36.8534L37.0012 38.0959L38.7512 39.8459C36.2557 42.0902 33.0716 43.42 29.7212 43.6172V40.9922H27.9712V43.6172C24.6414 43.4224 21.4749 42.109 18.9849 39.8897L20.7349 38.1397L19.4924 36.8972L17.7424 38.6472C15.514 36.1456 14.2 32.9622 14.0149 29.6172H16.5962V27.8672H14.0149C14.2097 24.5374 15.5231 21.3709 17.7424 18.8809L19.4924 20.6309L20.7349 19.3884L18.9849 17.6384C21.4749 15.4191 24.6414 14.1057 27.9712 13.9109V16.4922H29.7212V13.9109C33.051 14.1057 36.2174 15.4191 38.7074 17.6384L36.9574 19.3884L38.2174 20.6134Z" fill="#98C02E"/>
<path d="M29.7212 18.2422H27.9712V28.7422C27.9705 28.8573 27.9926 28.9715 28.0362 29.0781C28.0797 29.1847 28.1439 29.2817 28.225 29.3634L33.475 34.6134L34.7175 33.3709L29.7212 28.3834V18.2422Z" fill="#98C02E"/>
</svg>
