<svg width="36" height="37" viewBox="0 0 36 37" fill="none" xmlns="http://www.w3.org/2000/svg">
<path d="M26.3879 31.7787C28.8062 31.7787 30.7736 29.8095 30.7736 27.3891V24.6322C31.4252 24.4119 31.8958 23.7946 31.8958 23.0691C31.8958 22.1594 31.1563 21.4193 30.2474 21.4193C29.3385 21.4193 28.599 22.1594 28.599 23.0691C28.599 23.7946 29.0696 24.4118 29.7211 24.6322V27.3891C29.7211 29.2287 28.2258 30.7252 26.3879 30.7252C24.55 30.7252 23.0547 29.2286 23.0547 27.3891V24.6322C23.7062 24.4118 24.1768 23.7946 24.1768 23.0691C24.1768 22.1594 23.4374 21.4193 22.5285 21.4193C21.6196 21.4193 20.8801 22.1594 20.8801 23.0691C20.8801 23.7946 21.3507 24.4118 22.0022 24.6322V27.3891C22.0022 29.8095 23.9696 31.7787 26.3879 31.7787ZM30.2474 22.4727C30.576 22.4727 30.8432 22.7402 30.8432 23.069C30.8432 23.3978 30.5759 23.6654 30.2474 23.6654C29.9188 23.6654 29.6516 23.3978 29.6516 23.069C29.6516 22.7402 29.9188 22.4727 30.2474 22.4727ZM22.5285 22.4727C22.857 22.4727 23.1243 22.7402 23.1243 23.069C23.1243 23.3978 22.8569 23.6654 22.5285 23.6654C22.2 23.6654 21.9327 23.3978 21.9327 23.069C21.9327 22.7402 22.2 22.4727 22.5285 22.4727Z" fill="#003053"/>
<path d="M2.64419 36.1369H33.8471C34.6524 36.1369 35.2799 35.4359 35.1921 34.6352L34.5777 29.0243C34.5461 28.735 34.2868 28.5268 33.9973 28.558C33.7084 28.5898 33.4999 28.8498 33.5315 29.1389L34.1459 34.75C34.1653 34.928 34.0263 35.0836 33.8471 35.0836H18.9292H18.9285C18.7508 35.0836 18.6102 34.9295 18.6298 34.75L20.1475 20.8897C20.1642 20.737 20.2927 20.6218 20.4463 20.6218H32.3295C32.4831 20.6218 32.6115 20.737 32.6283 20.8897L33.2624 26.6811C33.2941 26.9702 33.5521 27.1788 33.8428 27.1473C34.1317 27.1156 34.3403 26.8555 34.3086 26.5664L33.6745 20.7751C33.5991 20.0872 33.021 19.5685 32.3295 19.5685H26.5074L25.6947 12.1465C25.5925 11.2131 24.808 10.5093 23.8698 10.5093H21.7761V7.50604C21.7761 3.46814 18.4936 0.183044 14.459 0.183044C10.4243 0.183044 7.14183 3.46814 7.14183 7.50604V10.5093H5.04815C4.10993 10.5093 3.32538 11.2131 3.22322 12.1465L0.819329 34.0996C0.700394 35.1863 1.55231 36.1369 2.64419 36.1369ZM1.86561 34.2142L4.2695 12.2612C4.31314 11.863 4.64791 11.5627 5.04822 11.5627H7.1419V13.5239C6.45439 13.7467 5.95571 14.3933 5.95571 15.1546C5.95571 16.0996 6.72391 16.8684 7.66816 16.8684C8.61241 16.8684 9.38062 16.0996 9.38062 15.1546C9.38062 14.3933 8.88193 13.7467 8.19442 13.5239V11.5627H13.2311C13.5218 11.5627 13.7574 11.3269 13.7574 11.036C13.7574 10.7451 13.5218 10.5093 13.2311 10.5093H8.19442V7.50604C8.19442 4.04896 11.0047 1.23641 14.459 1.23641C17.9133 1.23641 20.7236 4.04896 20.7236 7.50604V10.5093H15.687C15.3963 10.5093 15.1607 10.7451 15.1607 11.036C15.1607 11.3269 15.3963 11.5627 15.687 11.5627H20.7236V13.5239C20.0361 13.7467 19.5375 14.3933 19.5375 15.1546C19.5375 16.0996 20.3057 16.8684 21.2499 16.8684C22.1942 16.8684 22.9624 16.0996 22.9624 15.1546C22.9624 14.3933 22.4637 13.7467 21.7762 13.5239V11.5627H23.8699C24.2702 11.5627 24.6049 11.863 24.6486 12.2612L25.4486 19.5685H20.4463C19.7548 19.5685 19.1766 20.0872 19.1014 20.7751L17.5836 34.6354C17.5671 34.7862 17.5804 34.9557 17.6095 35.0836H2.64419C2.17757 35.0836 1.81473 34.6796 1.86561 34.2142ZM7.66809 14.4941C8.03205 14.4941 8.32802 14.7904 8.32802 15.1546C8.32802 15.5188 8.03198 15.8151 7.66809 15.8151C7.3042 15.8151 7.00816 15.5188 7.00816 15.1546C7.00816 14.7904 7.30413 14.4941 7.66809 14.4941ZM21.2498 14.4941C21.6138 14.4941 21.9098 14.7904 21.9098 15.1546C21.9098 15.5188 21.6137 15.8151 21.2498 15.8151C20.8859 15.8151 20.59 15.5188 20.59 15.1546C20.59 14.7904 20.886 14.4941 21.2498 14.4941Z" fill="#003053"/>
</svg>
