<svg width="20" height="20" viewBox="0 0 20 20" fill="none" xmlns="http://www.w3.org/2000/svg">
<g clip-path="url(#clip0)">
<path d="M10.1016 0.604492C4.86327 0.604492 0.601562 4.86619 0.601562 10.1045C0.601562 15.3428 4.86327 19.6045 10.1016 19.6045C15.3399 19.6045 19.6016 15.3428 19.6016 10.1045C19.6016 4.86619 15.3399 0.604492 10.1016 0.604492ZM10.1016 17.5831C5.97792 17.5831 2.62281 14.2283 2.62281 10.1045C2.62281 5.98066 5.97792 2.62593 10.1016 2.62593C14.2252 2.62593 17.5803 5.98066 17.5803 10.1045C17.5803 14.2283 14.2252 17.5831 10.1016 17.5831Z" fill="#98C02E"/>
<path d="M15.0526 9.81101H10.7833V4.67772C10.7833 4.24574 10.4331 3.89551 10.0011 3.89551C9.56911 3.89551 9.21887 4.24574 9.21887 4.67772V10.5932C9.21887 11.0252 9.56911 11.3754 10.0011 11.3754H15.0526C15.4846 11.3754 15.8348 11.0252 15.8348 10.5932C15.8348 10.1612 15.4846 9.81101 15.0526 9.81101Z" fill="#98C02E"/>
</g>
<defs>
<clipPath id="clip0">
<rect width="19" height="19" fill="white" transform="translate(0.601562 0.604492)"/>
</clipPath>
</defs>
</svg>
