<svg width="31" height="23" viewBox="0 0 31 23" fill="none" xmlns="http://www.w3.org/2000/svg">
<path d="M17.0158 1.04825C16.2347 0.267204 14.9684 0.267203 14.1873 1.04825L1.45943 13.7762C0.678378 14.5572 0.678378 15.8236 1.45943 16.6046C2.24047 17.3856 3.5068 17.3856 4.28785 16.6046L15.6016 5.29089L26.9153 16.6046C27.6963 17.3857 28.9626 17.3857 29.7437 16.6046C30.5247 15.8236 30.5247 14.5572 29.7437 13.7762L17.0158 1.04825ZM17.6016 4.18799L17.6016 2.46247L13.6016 2.46247L13.6016 4.18799L17.6016 4.18799Z" fill="#B7E934"/>
<path d="M16.3087 14.9277C15.9181 14.5372 15.285 14.5372 14.8945 14.9277L8.53049 21.2917C8.13997 21.6822 8.13997 22.3154 8.53049 22.7059C8.92102 23.0964 9.55418 23.0964 9.94471 22.7059L15.6016 17.049L21.2584 22.7059C21.6489 23.0964 22.2821 23.0964 22.6726 22.7059C23.0632 22.3154 23.0632 21.6822 22.6726 21.2917L16.3087 14.9277ZM16.6016 17.3604L16.6016 15.6348L14.6016 15.6348L14.6016 17.3604L16.6016 17.3604Z" fill="#B7E934"/>
</svg>
