<svg width="25" height="25" viewBox="0 0 25 25" fill="none" xmlns="http://www.w3.org/2000/svg">
<g clip-path="url(#clip0)">
<path d="M18.1049 0.362305L7.09813 0.362305C3.51586 0.362305 0.601563 3.27661 0.601563 6.85888L0.601563 17.8659C0.601563 21.448 3.51586 24.3623 7.09813 24.3623L18.1051 24.3623C21.6872 24.3623 24.6015 21.448 24.6015 17.8659L24.6015 6.85888C24.6015 3.27661 21.6872 0.362305 18.1049 0.362305V0.362305ZM12.6015 18.9246C8.98302 18.9246 6.03924 15.9808 6.03924 12.3623C6.03924 8.74376 8.98302 5.79998 12.6015 5.79998C16.2201 5.79998 19.1638 8.74376 19.1638 12.3623C19.1638 15.9808 16.2201 18.9246 12.6015 18.9246ZM19.3208 7.34758C18.2514 7.34758 17.3817 6.47783 17.3817 5.4085C17.3817 4.33917 18.2514 3.46923 19.3208 3.46923C20.3901 3.46923 21.26 4.33917 21.26 5.4085C21.26 6.47783 20.3901 7.34758 19.3208 7.34758Z" fill="#BABABA"/>
<path d="M12.6015 7.20654C9.75897 7.20654 7.44617 9.51916 7.44617 12.3619C7.44617 15.2044 9.75897 17.5172 12.6015 17.5172C15.4442 17.5172 17.7568 15.2044 17.7568 12.3619C17.7568 9.51916 15.4442 7.20654 12.6015 7.20654Z" fill="#BABABA"/>
<path d="M19.3208 4.87646C19.0275 4.87646 18.7887 5.11523 18.7887 5.40857C18.7887 5.7019 19.0275 5.94067 19.3208 5.94067C19.6143 5.94067 19.8531 5.70209 19.8531 5.40857C19.8531 5.11505 19.6143 4.87646 19.3208 4.87646Z" fill="#BABABA"/>
</g>
<defs>
<clipPath id="clip0">
<rect width="24" height="24" fill="white" transform="translate(0.601562 0.362305)"/>
</clipPath>
</defs>
</svg>
