<svg width="30" height="31" viewBox="0 0 30 31" fill="none" xmlns="http://www.w3.org/2000/svg">
<g clip-path="url(#clip0)">
<path d="M17.8711 15.5001C17.8711 17.0858 16.5857 18.3712 15 18.3712C13.4143 18.3712 12.1289 17.0858 12.1289 15.5001C12.1289 13.9144 13.4143 12.629 15 12.629C16.5857 12.629 17.8711 13.9144 17.8711 15.5001Z" fill="#003053"/>
<path d="M21.7145 10.4203C21.5765 10.0463 21.3563 9.70779 21.0702 9.42993C20.7923 9.14383 20.454 8.92365 20.0798 8.78563C19.7763 8.66776 19.3204 8.52745 18.4806 8.48923C17.5722 8.4478 17.2998 8.43887 15 8.43887C12.7 8.43887 12.4276 8.44757 11.5194 8.489C10.6796 8.52745 10.2235 8.66776 9.9202 8.78563C9.54597 8.92365 9.20746 9.14383 8.92982 9.42993C8.64372 9.70779 8.42354 10.0461 8.28529 10.4203C8.16742 10.7238 8.02711 11.18 7.98889 12.0197C7.94746 12.9279 7.93854 13.2003 7.93854 15.5003C7.93854 17.8001 7.94746 18.0725 7.98889 18.9809C8.02711 19.8207 8.16742 20.2766 8.28529 20.5801C8.42354 20.9544 8.64349 21.2926 8.9296 21.5705C9.20746 21.8566 9.54575 22.0768 9.91997 22.2148C10.2235 22.3329 10.6796 22.4732 11.5194 22.5114C12.4276 22.5529 12.6997 22.5616 14.9998 22.5616C17.3 22.5616 17.5724 22.5529 18.4804 22.5114C19.3201 22.4732 19.7763 22.3329 20.0798 22.2148C20.831 21.925 21.4247 21.3313 21.7145 20.5801C21.8324 20.2766 21.9727 19.8207 22.0111 18.9809C22.0525 18.0725 22.0612 17.8001 22.0612 15.5003C22.0612 13.2003 22.0525 12.9279 22.0111 12.0197C21.9729 11.18 21.8326 10.7238 21.7145 10.4203ZM15 19.923C12.5571 19.923 10.5769 17.943 10.5769 15.5001C10.5769 13.0573 12.5571 11.0772 15 11.0772C17.4426 11.0772 19.4229 13.0573 19.4229 15.5001C19.4229 17.943 17.4426 19.923 15 19.923ZM19.5978 11.936C19.0269 11.936 18.5641 11.4732 18.5641 10.9023C18.5641 10.3315 19.0269 9.8687 19.5978 9.8687C20.1686 9.8687 20.6314 10.3315 20.6314 10.9023C20.6312 11.4732 20.1686 11.936 19.5978 11.936Z" fill="#003053"/>
<path d="M15 0.500107C6.717 0.500107 0 7.2171 0 15.5001C0 23.7831 6.717 30.5001 15 30.5001C23.283 30.5001 30 23.7831 30 15.5001C30 7.2171 23.283 0.500107 15 0.500107ZM23.5613 19.0512C23.5197 19.9681 23.3739 20.5941 23.161 21.142C22.7135 22.299 21.7989 23.2137 20.6419 23.6611C20.0942 23.874 19.468 24.0195 18.5513 24.0614C17.6328 24.1033 17.3394 24.1134 15.0002 24.1134C12.6608 24.1134 12.3676 24.1033 11.4489 24.0614C10.5322 24.0195 9.90601 23.874 9.35829 23.6611C8.78334 23.4448 8.26286 23.1059 7.83257 22.6675C7.39449 22.2375 7.05551 21.7168 6.83922 21.142C6.62636 20.5943 6.48056 19.9681 6.4389 19.0514C6.39656 18.1327 6.38672 17.8393 6.38672 15.5001C6.38672 13.1609 6.39656 12.8675 6.43867 11.949C6.48033 11.0321 6.6259 10.4061 6.83876 9.85817C7.05505 9.28345 7.39426 8.76274 7.83257 8.33267C8.26263 7.89436 8.78334 7.55539 9.35806 7.3391C9.90601 7.12624 10.532 6.98067 11.4489 6.93878C12.3674 6.8969 12.6608 6.88683 15 6.88683C17.3392 6.88683 17.6326 6.8969 18.5511 6.93901C19.468 6.98067 20.094 7.12624 20.6419 7.33887C21.2167 7.55516 21.7374 7.89436 22.1677 8.33267C22.6057 8.76297 22.9449 9.28345 23.161 9.85817C23.3741 10.4061 23.5197 11.0321 23.5616 11.949C23.6034 12.8675 23.6133 13.1609 23.6133 15.5001C23.6133 17.8393 23.6034 18.1327 23.5613 19.0512Z" fill="#003053"/>
</g>
<defs>
<clipPath id="clip0">
<rect width="30" height="30" fill="white" transform="translate(0 0.500107)"/>
</clipPath>
</defs>
</svg>
