<svg width="31" height="31" viewBox="0 0 31 31" fill="none" xmlns="http://www.w3.org/2000/svg">
<g clip-path="url(#clip0)">
<path d="M29.6478 4.29156C29.2065 3.84947 28.4904 3.84871 28.0491 4.28969L14.4851 17.8179L9.59119 12.5027C9.16832 12.0437 8.45336 12.0139 7.99357 12.4367C7.53414 12.8596 7.50473 13.5749 7.9276 14.0344L13.6186 20.2149C13.827 20.4414 14.1187 20.573 14.4262 20.5793C14.4345 20.5797 14.4425 20.5797 14.4504 20.5797C14.7493 20.5797 15.0368 20.461 15.2486 20.2499L29.6456 5.89064C30.088 5.44973 30.0888 4.73365 29.6478 4.29156Z" fill="#98C02E"/>
<path d="M29.375 14.0597C28.7505 14.0597 28.2443 14.5659 28.2443 15.1904C28.2443 22.2148 22.53 27.9291 15.5056 27.9291C8.48166 27.9291 2.76695 22.2148 2.76695 15.1904C2.76695 8.16645 8.48166 2.45174 15.5056 2.45174C16.1301 2.45174 16.6363 1.94561 16.6363 1.32111C16.6363 0.696563 16.1301 0.19043 15.5056 0.19043C7.23455 0.19043 0.505646 6.91934 0.505646 15.1904C0.505646 23.4612 7.23455 30.1904 15.5056 30.1904C23.7764 30.1904 30.5056 23.4612 30.5056 15.1904C30.5056 14.5659 29.9995 14.0597 29.375 14.0597Z" fill="#98C02E"/>
</g>
<defs>
<clipPath id="clip0">
<rect width="30" height="30" fill="white" transform="translate(0.505646 0.19043)"/>
</clipPath>
</defs>
</svg>
