<svg width="21" height="21" viewBox="0 0 21 21" fill="none" xmlns="http://www.w3.org/2000/svg">
<g clip-path="url(#clip0)">
<path d="M18.8437 3.12891H2.35935C2.08876 3.12891 1.83544 3.19543 1.60626 3.30508L10.5625 12.2613L12.5699 10.3321C12.5699 10.3321 12.57 10.3319 12.5701 10.3318C12.5701 10.3318 12.5702 10.3317 12.5702 10.3317L19.5971 3.30523C19.3679 3.19551 19.1144 3.12891 18.8437 3.12891Z" fill="#98C02E"/>
<path d="M20.4258 4.13428L13.8132 10.7465L20.4256 17.3589C20.5352 17.1297 20.6017 16.8764 20.6017 16.6058V4.88709C20.6017 4.61666 20.5354 4.36338 20.4258 4.13428Z" fill="#98C02E"/>
<path d="M0.777734 4.1333C0.668086 4.36248 0.601562 4.6158 0.601562 4.88639V16.6051C0.601562 16.8756 0.668008 17.1289 0.777578 17.358L7.3902 10.7458L0.777734 4.1333Z" fill="#98C02E"/>
<path d="M12.9844 11.5743L10.9767 13.5037C10.8623 13.6182 10.7124 13.6754 10.5625 13.6754C10.4126 13.6754 10.2626 13.6182 10.1482 13.5037L8.21869 11.5742L1.60596 18.1865C1.83518 18.2962 2.08865 18.3628 2.35932 18.3628H18.8437C19.1143 18.3628 19.3676 18.2963 19.5968 18.1867L12.9844 11.5743Z" fill="#98C02E"/>
</g>
<defs>
<clipPath id="clip0">
<rect width="20" height="20" fill="white" transform="translate(0.601562 0.746094)"/>
</clipPath>
</defs>
</svg>
