<svg width="23" height="23" viewBox="0 0 23 23" fill="none" xmlns="http://www.w3.org/2000/svg">
<g clip-path="url(#clip0)">
<path d="M11.6016 0.44043C7.55807 0.44043 4.26825 3.73025 4.26825 7.77378C4.26825 8.98765 4.57174 10.1912 5.14868 11.2587L11.2006 22.2041C11.2811 22.35 11.4347 22.4404 11.6016 22.4404C11.7685 22.4404 11.9221 22.35 12.0026 22.2041L18.0567 11.2551C18.6315 10.1912 18.9349 8.9876 18.9349 7.77373C18.9349 3.73025 15.6451 0.44043 11.6016 0.44043ZM11.6016 11.4404C9.57983 11.4404 7.93495 9.79554 7.93495 7.77378C7.93495 5.75201 9.57983 4.10713 11.6016 4.10713C13.6234 4.10713 15.2682 5.75201 15.2682 7.77378C15.2682 9.79554 13.6234 11.4404 11.6016 11.4404Z" fill="#98C02E"/>
</g>
<defs>
<clipPath id="clip0">
<rect width="22" height="22" fill="white" transform="translate(0.601562 0.44043)"/>
</clipPath>
</defs>
</svg>
