<svg width="35" height="34" viewBox="0 0 35 34" fill="none" xmlns="http://www.w3.org/2000/svg">
<g clip-path="url(#clip0)">
<path d="M19.0873 13.8752H15.9086V10.6508C15.9086 10.2326 15.5664 9.89038 15.1481 9.89038C14.7299 9.89038 14.3877 10.2326 14.3877 10.6508V13.8752H11.1633C10.745 13.8752 10.4028 14.2174 10.4028 14.6357C10.4028 15.0539 10.745 15.3961 11.1633 15.3961H14.3877V18.5825C14.3877 19.0007 14.7299 19.3429 15.1481 19.3429C15.5664 19.3429 15.9086 19.0007 15.9086 18.5825V15.3961H19.0873C19.5056 15.3961 19.8478 15.0539 19.8478 14.6357C19.8478 14.2174 19.5132 13.8752 19.0873 13.8752Z" fill="#DCF0FB"/>
<path d="M23.2623 6.42251C18.7604 1.92817 11.4371 1.92817 6.94277 6.42251C2.44844 10.9168 2.44844 18.2401 6.94277 22.742C11.4523 27.2364 18.7528 27.2364 23.2623 22.742C27.7566 18.2477 27.7566 10.9245 23.2623 6.42251ZM22.1825 21.6698C18.2737 25.571 11.9162 25.5786 8.01503 21.6698C4.10625 17.761 4.10625 11.4035 8.01503 7.50237C11.9314 3.60119 18.2661 3.60119 22.1825 7.50237C26.0912 11.4035 26.0912 17.761 22.1825 21.6698Z" fill="#DCF0FB"/>
<path d="M33.6955 29.2137C33.6879 29.2061 33.6803 29.1985 33.6727 29.1909L27.2088 22.7118C31.6955 16.0273 29.916 6.96259 23.2316 2.47586C16.5471 -2.01087 7.48237 -0.231391 2.99563 6.45308C-1.4911 13.1376 0.288385 22.2023 6.97285 26.689C9.08694 28.1111 11.5356 28.9476 14.0756 29.1301C14.4178 29.1529 14.76 29.1681 15.0946 29.1681C17.992 29.1681 20.8209 28.3088 23.224 26.6966L29.6879 33.1605C30.783 34.2708 32.5624 34.2784 33.6651 33.191C34.7754 32.0959 34.783 30.3164 33.6955 29.2137ZM22.8589 25.092C17.049 29.3887 8.86641 28.1567 4.5774 22.3544C0.288385 16.552 1.51273 8.36184 7.32267 4.07283C13.1326 -0.216182 21.3152 1.00816 25.6042 6.8181C29.0187 11.4417 29.0187 17.7536 25.589 22.3772C24.8209 23.4038 23.9008 24.324 22.8589 25.092ZM32.6005 32.0883C32.3571 32.3316 32.0301 32.4685 31.6803 32.4685C31.3381 32.4685 31.0111 32.3316 30.7677 32.0883L24.4559 25.7765C24.7829 25.5027 25.1023 25.2137 25.4141 24.9019C25.7259 24.5901 26.0148 24.2707 26.2886 23.9437L32.6005 30.2556C33.1024 30.7575 33.1024 31.5788 32.6005 32.0883Z" fill="#DCF0FB"/>
</g>
<defs>
<clipPath id="clip0">
<rect width="34" height="34" fill="white" transform="translate(0.512451)"/>
</clipPath>
</defs>
</svg>
