<svg width="31" height="30" viewBox="0 0 31 30" fill="none" xmlns="http://www.w3.org/2000/svg">
<path d="M26.726 15.157H25.1523C25.1523 10.1638 20.9751 6.10359 15.842 6.10359L15.8411 4.5754C21.8442 4.57264 26.726 9.3207 26.726 15.157ZM15.8411 7.21484L15.8401 8.74304C19.4798 8.74304 22.4365 11.6203 22.4346 15.1561L24.0083 15.1552C24.0083 10.7773 20.347 7.21484 15.8411 7.21484ZM15.5265 0C7.01829 0 0.0979614 6.7281 0.0979614 15.0009C0.0979614 23.2719 7.01829 30 15.5265 30C16.0527 30 16.4778 29.5867 16.4778 29.0761C16.4778 28.5627 16.0527 28.1485 15.5265 28.1485C8.06777 28.1485 2.00138 22.2488 2.00138 15.0009C2.00138 7.74934 8.06777 1.85055 15.5265 1.85055C22.9853 1.85055 29.0507 7.75026 29.0507 15.0009C29.0507 18.0307 27.392 21.0329 25.0181 22.3058C24.1557 22.7668 23.2205 22.9955 22.223 23.0047C22.8219 22.6584 23.3405 22.19 23.7259 21.6004C23.8015 21.4893 23.9016 21.391 23.9507 21.2707C24.2605 20.5461 24.2879 19.7242 24.475 18.9582C24.7045 17.9811 20.0749 16.0718 19.6725 17.2923C19.527 17.7441 19.3041 19.1731 19.0122 19.5497C18.7524 19.8858 18.112 19.726 17.7115 19.3954C16.6563 18.5211 15.4784 17.2363 14.4449 16.2205L14.4468 16.2196C14.4204 16.193 14.3883 16.1636 14.3599 16.1351C14.3306 16.1085 14.3014 16.0782 14.2721 16.0506V16.0525C13.2273 15.0459 11.9048 13.9034 11.0065 12.8758C10.6664 12.4864 10.5021 11.8637 10.8478 11.6112C11.2351 11.3255 12.7049 11.1125 13.1697 10.9692C14.4223 10.5798 12.4612 6.07604 11.4543 6.30013C10.6683 6.47921 9.82288 6.5086 9.07757 6.808C8.95099 6.86034 8.85275 6.95494 8.73845 7.02841C6.09445 8.65763 5.75343 12.614 8.33415 15.5621C9.31751 16.6898 10.3434 17.7809 11.3995 18.8462L11.3938 18.8499C11.4231 18.8783 11.4533 18.905 11.4835 18.9325C11.5119 18.961 11.5393 18.9895 11.5667 19.0198L11.5723 19.0143C12.6681 20.041 13.967 21.5536 16.0772 22.922C20.5198 25.8066 23.929 25.0012 25.9373 23.9304C29.404 22.0743 30.9551 18.1097 30.9551 15.0046C30.9551 6.7281 24.0338 0 15.5265 0Z" fill="#003053"/>
</svg>
