<svg width="18" height="18" viewBox="0 0 18 18" fill="none" xmlns="http://www.w3.org/2000/svg">
<path d="M15.9041 11.2053C14.8633 11.2053 13.8413 11.0424 12.8729 10.722C12.3984 10.56 11.815 10.7087 11.5254 11.0064L9.61391 12.4506C7.39715 11.2662 6.03166 9.90002 4.86451 7.698L6.26501 5.83472C6.62887 5.47103 6.75938 4.93976 6.60302 4.44129C6.28161 3.46693 6.11834 2.44459 6.11834 1.40245C6.11839 0.649592 5.50643 0.0371094 4.75427 0.0371094H1.6323C0.880143 0.0371094 0.268188 0.649592 0.268188 1.4024C0.268188 10.0316 7.28235 17.0518 15.9041 17.0518C16.6562 17.0518 17.2682 16.4393 17.2682 15.6865V12.5705C17.2681 11.8178 16.6562 11.2053 15.9041 11.2053Z" fill="#98C02E"/>
</svg>
