<svg width="31" height="31" viewBox="0 0 31 31" fill="none" xmlns="http://www.w3.org/2000/svg">
<g clip-path="url(#clip0)">
<path d="M15.527 0.500107C7.24305 0.500107 0.527039 7.21581 0.527039 15.5001C0.527039 23.7844 7.24305 30.5001 15.527 30.5001C23.811 30.5001 30.527 23.7844 30.527 15.5001C30.527 7.21581 23.811 0.500107 15.527 0.500107ZM23.1358 17.1224C23.835 17.8053 24.5746 18.4479 25.2022 19.2014C25.4803 19.5347 25.7424 19.8793 25.9419 20.267C26.2267 20.8197 25.9695 21.4258 25.4748 21.4587L22.4017 21.4581C21.6081 21.5237 20.9764 21.2036 20.444 20.661C20.0189 20.2286 19.6245 19.7667 19.2151 19.3195C19.0479 19.136 18.8717 18.9632 18.6618 18.8273C18.2428 18.5547 17.8789 18.6382 17.6389 19.0759C17.3943 19.5212 17.3384 20.0147 17.3151 20.5103C17.2816 21.2349 17.0631 21.4243 16.336 21.4584C14.7825 21.5311 13.3084 21.2954 11.9384 20.5122C10.7298 19.8213 9.79435 18.8463 8.97921 17.7424C7.3919 15.5903 6.17625 13.2284 5.08397 10.7986C4.83814 10.2514 5.01798 9.95862 5.62167 9.94727C6.62463 9.92793 7.6276 9.93039 8.63057 9.94635C9.03875 9.95279 9.30883 10.1863 9.46566 10.5715C10.0077 11.905 10.6721 13.1738 11.5047 14.3504C11.7266 14.6638 11.9531 14.9762 12.2757 15.1975C12.6317 15.4418 12.903 15.3611 13.0709 14.9636C13.1783 14.7111 13.2246 14.441 13.248 14.1703C13.3278 13.2431 13.3373 12.3163 13.1992 11.3928C13.1132 10.8149 12.7882 10.4417 12.2122 10.3324C11.9188 10.2769 11.9617 10.1682 12.1044 10.0007C12.3521 9.71095 12.5841 9.53172 13.0479 9.53172L16.5199 9.5311C17.0671 9.63852 17.1899 9.88405 17.2641 10.4352L17.2672 14.2937C17.2607 14.507 17.3743 15.1392 17.7573 15.2788C18.0642 15.3801 18.2668 15.134 18.4503 14.9397C19.2829 14.0561 19.8762 13.0133 20.4074 11.9339C20.6419 11.4579 20.8442 10.9653 21.0406 10.4718C21.1867 10.1069 21.4138 9.92732 21.8257 9.93346L25.1691 9.93745C25.2676 9.93745 25.3677 9.93837 25.4652 9.95525C26.0287 10.0516 26.1831 10.2941 26.0088 10.8437C25.7344 11.7074 25.2013 12.4268 24.6802 13.148C24.1216 13.9202 23.5259 14.6653 22.9729 15.4409C22.4646 16.1498 22.5048 16.5068 23.1358 17.1224Z" fill="#003053"/>
</g>
<defs>
<clipPath id="clip0">
<rect width="30" height="30" fill="white" transform="translate(0.527039 0.500107)"/>
</clipPath>
</defs>
</svg>
