<svg width="31" height="31" viewBox="0 0 31 31" fill="none" xmlns="http://www.w3.org/2000/svg">
<g clip-path="url(#clip0)">
<path d="M13.465 18.3103L18.3443 15.5001L13.465 12.6899V18.3103Z" fill="#003053"/>
<path d="M15.3879 0.500107C23.6709 0.500107 30.3879 7.2171 30.3879 15.5001C30.3879 23.7831 23.6709 30.5001 15.3879 30.5001C7.10487 30.5001 0.387878 23.7831 0.387878 15.5001C0.387878 7.2171 7.10487 0.500107 15.3879 0.500107ZM6.01517 15.5154C6.01517 15.5154 6.01517 18.5575 6.40106 20.0244C6.61736 20.8273 7.25044 21.4604 8.05336 21.6765C9.52026 22.0626 15.3879 22.0626 15.3879 22.0626C15.3879 22.0626 21.2402 22.0626 22.7224 21.6611C23.5253 21.4451 24.1584 20.8118 24.3747 20.0089C24.7608 18.5575 24.7608 15.5001 24.7608 15.5001C24.7608 15.5001 24.7608 12.4583 24.3747 10.9914C24.1586 10.1884 23.51 9.53979 22.7224 9.32373C21.2555 8.93761 15.3879 8.93761 15.3879 8.93761C15.3879 8.93761 9.52026 8.93761 8.05336 9.33907C7.25044 9.55513 6.61736 10.1884 6.40106 10.9914C5.9996 12.4583 6.01517 15.5154 6.01517 15.5154Z" fill="#003053"/>
</g>
<defs>
<clipPath id="clip0">
<rect width="30" height="30" fill="white" transform="matrix(-1 0 0 1 30.3879 0.500107)"/>
</clipPath>
</defs>
</svg>
