<?xml version="1.0" standalone="no"?>
<!DOCTYPE svg PUBLIC "-//W3C//DTD SVG 1.1//EN" "http://www.w3.org/Graphics/SVG/1.1/DTD/svg11.dtd">
<svg xmlns="http://www.w3.org/2000/svg">
<metadata>Copyright (C) 2020 by original authors @ fontello.com</metadata>
<defs>
<font id="fontello" horiz-adv-x="1000" >
<font-face font-family="fontello" font-weight="400" font-stretch="normal" units-per-em="1000" ascent="850" descent="-150" />
<missing-glyph horiz-adv-x="1000" />
<glyph glyph-name="tel" unicode="&#xe800;" d="M891 345h-53c0 166-139 302-310 302l0 51c200 0 363-159 363-353z m-363 265l0-51c121 0 220-96 220-214l52 0c0 146-122 265-272 265z m-10 240c-284 0-515-224-515-500 0-276 231-500 515-500 17 0 31 14 31 31 0 17-14 31-31 31-249 0-451 196-451 438 0 242 202 438 451 438 248 0 450-196 450-438 0-101-55-201-134-243-29-16-60-23-93-24 20 12 37 27 50 47 2 4 6 7 7 11 11 24 12 52 18 77 8 33-147 96-160 56-5-15-12-63-22-76-9-11-30-5-44 6-35 29-74 72-108 105l0 0c-1 1-2 2-3 3-1 1-2 2-3 3v0c-35 34-79 72-109 106-11 13-17 34-5 42 13 10 62 17 77 21 42 13-24 164-57 156-26-6-55-7-79-17-5-2-8-5-12-7-88-55-99-186-13-285 33-37 67-74 102-109l0 0c1-1 2-2 3-3 1-1 2-2 3-3l0 0c36-34 80-84 150-130 148-96 262-69 329-34 115 62 167 194 167 298 0 276-231 500-514 500z" horiz-adv-x="1033" />

<glyph glyph-name="tel2" unicode="&#xe801;" d="M884 228c-58 0-115 9-169 26-26 9-59 1-75-15l-106-81c-123 66-199 142-264 264l78 104c20 20 28 50 19 77-18 54-27 111-27 169 0 42-34 76-76 76h-173c-42 0-76-34-76-76 0-479 390-869 869-869 41 0 75 34 75 75v174c0 42-34 76-75 76z" horiz-adv-x="1000" />

<glyph glyph-name="vk" unicode="&#xe802;" d="M501 834c-267 0-484-217-484-484 0-267 217-484 484-484 267 0 484 217 484 484 0 267-217 484-484 484z m245-536c23-22 47-43 67-67 9-11 17-22 24-35 9-18 1-37-15-38l-99 0c-26-2-46 8-63 26-14 14-27 28-40 43-6 6-11 11-18 16-13 9-25 6-33-8-8-15-10-31-10-47-1-23-9-29-32-30-50-3-98 5-142 30-39 23-69 54-95 90-52 69-91 145-126 224-8 17-2 27 17 27 33 1 65 1 97 0 14 0 22-8 27-20 18-43 39-84 66-122 7-10 15-20 25-27 12-8 20-5 26 7 3 8 5 17 5 26 3 30 3 60-1 90-3 18-13 30-32 34-9 2-8 5-3 10 8 10 15 16 30 16l112 0c18-4 22-12 24-30l0-124c0-7 4-27 16-32 10-3 16 5 22 11 27 29 46 62 63 97 8 15 14 31 21 47 4 12 12 18 25 18l108-1c3 0 6 0 10 0 18-3 23-11 17-29-9-28-26-51-43-74-18-25-37-49-55-74-16-23-15-34 5-54z" horiz-adv-x="1000" />

<glyph glyph-name="you-tube" unicode="&#xe803;" d="M434 259l158 91-158 91v-182z m62 575c268 0 484-217 484-484 0-267-216-484-484-484-267 0-483 217-483 484 0 267 216 484 483 484z m-302-484c0 0 0-99 13-146 7-26 27-46 53-53 47-13 236-13 236-13 0 0 189 0 237 13 26 7 46 28 53 54 13 46 13 145 13 145 0 0 0 98-13 145-7 26-28 47-53 54-47 13-237 13-237 13 0 0-189 0-236-13-26-7-46-28-53-54-13-47-13-145-13-145z" horiz-adv-x="1000" />

<glyph glyph-name="a1" unicode="&#xe804;" d="M573 540c-2 3-4 6-6 9-3 6-11 6-15 2-23-26-41-48-53-67-13 19-30 41-53 67-5 4-12 4-16-2-1-3-3-6-6-9-5-8-11-16-18-24-3-4-3-9 0-13 48-54 64-92 64-93 5-12 16-20 29-20 12 0 24 8 28 20 1 1 16 39 65 93 3 4 3 9 0 13-7 8-13 16-19 24z m324-272h-92c-51 0-92-41-92-92v-229c0-51 41-92 92-92h92c50 0 91 41 91 92v229c0 51-41 92-91 92z m30-321c0-17-14-31-30-31h-92c-17 0-31 14-31 31v229c0 17 14 31 31 31h92c16 0 30-14 30-31v-229z m-474 260h92c17 0 30-14 30-31 0-17 14-30 31-30 17 0 30 13 30 30 0 51-41 92-91 92h-92c-51 0-92-41-92-92v-229c0-51 41-92 92-92h92c50 0 91 41 91 92 0 17-13 30-30 30-17 0-31-13-31-30 0-17-13-31-30-31h-92c-17 0-31 14-31 31v229c0 17 14 31 31 31z m-352 0h92c17 0 30-14 30-31 0-17 14-30 31-30 17 0 31 13 31 30 0 51-42 92-92 92h-92c-51 0-92-41-92-92v-229c0-51 41-92 92-92h92c50 0 92 41 92 92 0 17-14 30-31 30-17 0-31-13-31-30 0-17-13-31-30-31h-92c-17 0-31 14-31 31v84h77c17 0 30 14 30 31 0 16-13 30-30 30h-77v84c0 17 14 31 31 31z m867 600c-5 7-12 11-20 13-2 0-51 9-108 13-83 5-139-3-171-25-63-43-88-121-66-190 2-7 10-9 15-5 30 26 67 53 110 79 15 9 35 4 43-13 7-14 1-31-12-40-44-27-80-54-110-80-4-3-4-10 0-14 31-29 73-45 114-45 33 0 66 10 94 29 33 22 61 71 87 149 18 55 28 104 28 106 2 8 0 16-4 23z m-730-167c-14 9-19 28-10 42 9 14 28 19 42 10 43-26 79-53 110-79 5-4 13-2 15 5 22 69-3 147-66 190-33 22-89 30-171 25-58-4-106-13-108-13-9-2-16-6-20-13-5-7-7-15-5-23 1-2 10-51 28-106 26-78 55-127 87-149 29-19 62-29 94-29 42 0 83 16 115 45 4 4 4 11 0 14-30 26-67 54-111 81z" horiz-adv-x="1000" />

<glyph glyph-name="a2" unicode="&#xe805;" d="M986 294c-2 3-4 5-7 6-3 1-6 1-9 0l-66-26c-93-36-170-103-219-190 4 68 22 135 55 194 33 60 79 112 134 152l15 10c2 2 4 5 5 8 1 3 0 6-1 9-1 3-4 5-7 6-3 2-6 2-9 1-106-32-199-100-261-192 15 99 55 192 115 271l48 62c2 3 3 6 3 9 0 4-2 7-4 9-2 2-5 4-8 4-3 0-6 0-9-2-93-63-168-149-217-250-27 134-82 261-159 373-22 32-45 62-70 90-3 3-5 4-9 5-3 0-6 0-9-2-3-2-5-5-5-8-1-3-1-6 0-9l49-110c41-91 68-188 79-287-47 79-112 146-188 198-3 2-6 2-9 2-3 0-6-2-8-4-2-2-4-5-4-9 0-3 1-6 3-9l48-62c60-79 100-172 115-271-62 92-155 160-261 192-3 1-7 1-9-1-3-1-6-3-7-6-2-3-2-6-1-9 1-3 2-6 5-8l15-10c55-40 101-92 134-152 33-59 51-126 55-194-49 87-127 154-220 190l-65 26c-3 1-6 1-9 0-3-1-6-3-7-6-2-3-2-6-2-9 1-3 2-6 5-8l75-65c44-38 79-85 103-138 25-52 37-110 37-168v-20h-86c-2 0-4 0-5-1-2-1-4-2-5-3-1-1-2-3-3-4 0-2-1-4-1-6 0-1 1-3 1-5 1-1 2-3 3-4 1-1 3-2 5-3 1-1 3-1 5-1h715c4 0 7 1 10 4 2 2 4 6 4 9 0 4-2 7-4 10-3 2-6 4-10 4h-86c-1 44 4 88 15 131 22 76 65 144 125 195l75 65c3 2 4 5 5 8 0 3 0 6-2 9z m-734-408v20c0 62-13 123-39 180-26 56-64 106-111 146l-16 14c67-27 125-72 169-130 43-57 71-126 79-198 2-10 2-21 3-32l-85 0z m179 0h-67c0 3 0 6-1 9-2 45-11 89-27 132v33c0 65-13 128-38 187-25 59-61 112-107 157 84-45 151-115 193-200 31-62 47-131 47-200v-118z m52 0h-26v56c0 20 0 41 0 62v0c0 9 0 18 0 27v0c-4 64-20 127-48 184-5 114-43 225-108 319 108-104 173-245 181-394 1-11 1-21 1-31l0-223z m-30 481c-7 124-37 245-87 358l-4 9c25-36 47-73 67-112 27-52 49-107 66-162 13-42 23-85 30-128-12-31-22-63-29-95-9 45-24 88-43 130z m82-481h-25v223c0 71 13 141 38 208 32 82 81 156 144 217-65-94-103-205-108-319-28-57-44-119-48-182-3-49-1-98-1-147z m94 0h-67v118c0 18 1 35 3 53 9 72 35 142 76 202 41 61 97 111 161 145-46-45-82-98-107-157-25-59-38-122-38-187v-33c-16-43-25-87-27-132-1-3-1-6-1-9z m262 346c-83-71-136-172-148-281-2-22-2-43-2-65h-85c0 11 1 22 2 32 9 72 37 141 80 198 44 58 102 103 169 130l-16-14z" horiz-adv-x="1000" />

<glyph glyph-name="a3" unicode="&#xe806;" d="M511 843c-64 0-117-52-117-115 0-64 53-116 117-116 64 0 117 52 117 116 0 63-53 115-117 115z m0-198c-46 0-83 37-83 83 0 45 37 82 83 82 46 0 83-37 83-82 0-46-37-83-83-83z m50-49h-100c-83 0-150-67-150-149v-280h67v-314h33v380h-33v-33h-34v247c0 64 53 116 117 116h100c64 0 117-52 117-116v-247h-34v33h-33v-380h33v314h67v280c0 82-67 149-150 149z m-33-429h-34v-314h34v314z m316 511c-55 0-100-44-100-99 0-55 45-99 100-99 56 0 100 44 100 99 0 55-44 99-100 99z m0-165c-36 0-66 30-66 66 0 37 30 66 66 66 37 0 67-29 67-66 0-36-30-66-67-66z m50-49h-150v-33h150c46 0 84-37 84-83v-214h-34v33h-33v-314h33v248h67v247c0 64-52 116-117 116z m-150-297v-33h-66v-33h66v-248h34v314h-34z m117-66h-33v-248h33v248z m-683 577c-56 0-100-44-100-99 0-55 44-99 100-99 55 0 100 44 100 99 0 55-45 99-100 99z m0-165c-37 0-67 30-67 66 0 37 30 66 67 66 36 0 66-29 66-66 0-36-30-66-66-66z m-50-49c-65 0-117-52-117-116v-247h67v-248h33v314h-33v-33h-34v214c0 46 38 83 84 83h150v33h-150z m150-330v33h-34v-314h34v248h66v33h-66z m-84-33h-33v-248h33v248z" horiz-adv-x="1019" />

<glyph glyph-name="a4" unicode="&#xe807;" d="M184 89c-14 0-27-4-38-10-61 79-94 177-94 278 0 250 199 453 444 453 30 0 59-3 88-9 11-2 20 4 23 15 2 10-5 20-15 22-32 7-64 10-96 10-129 0-250-51-341-144-91-92-141-216-141-347 0-110 37-218 104-304-9-13-13-29-13-45 0-21 8-42 23-57 15-15 34-23 56-23 21 0 41 8 55 23 15 15 24 36 24 57 0 22-9 42-24 57-14 15-34 24-55 24z m29-111c-8-8-18-12-29-12-11 0-22 4-30 12-8 8-12 19-12 30 0 12 4 22 12 30 8 8 19 12 30 12 11 0 21-4 29-12 8-8 12-18 12-30 0-11-4-22-12-30z m661 683c20 32 17 74-10 102-15 15-35 24-56 24-21 0-41-9-56-24-15-15-23-35-23-57 0-21 8-42 23-57 15-15 35-23 56-23 14 0 27 3 38 9 61-79 94-177 94-278 0-249-199-453-444-453-30 0-59 3-88 9-10 2-20-4-22-15-2-10 5-20 15-22 31-7 63-10 95-10 129 0 250 51 341 144 91 93 141 216 141 347 0 110-37 218-104 304z m-95 15c-8 8-12 19-12 30 0 11 4 22 12 30 8 8 18 12 29 12 11 0 22-4 30-12 16-17 16-43 0-60-8-8-19-12-30-12-11 0-21 4-29 12z m-361-649c0-10 9-19 19-19h118c10 0 19 9 19 19v37c24 7 48 17 70 30l26-26c3-4 8-6 13-6 5 0 10 2 14 6l83 85c7 7 7 20 0 27l-26 26c13 23 23 47 29 72h37c10 0 18 9 18 19v120c0 11-8 19-18 19h-37c-6 26-16 50-29 72l26 26c3 4 5 9 5 14 0 5-2 10-5 14l-84 84c-7 8-19 8-26 0l-26-26c-22 13-46 23-70 30v37c0 11-9 19-19 19h-118c-10 0-19-8-19-19v-37c-24-7-48-17-70-30l-26 26c-7 8-19 8-27 0l-83-84c-3-4-5-9-5-14 0-5 2-10 5-14l26-26c-13-22-23-46-29-72h-37c-10 0-19-8-19-19l0-120c0-5 2-10 6-13 3-4 8-6 13-6h37c6-25 16-49 29-72l-26-26c-7-7-7-20 0-27l83-85c4-4 9-6 14-6h0c5 0 9 2 13 6l26 26c22-13 46-23 70-30v-37z m-63 108c-7 5-17 3-24-3l-22-23-57 57 23 24c6 6 7 16 2 24-17 27-29 56-35 87-2 9-10 16-19 16h-32l0 81h32c9 0 17 6 19 15 6 31 18 61 35 88 5 7 4 17-2 24l-23 23 57 58 22-23c7-7 17-8 24-3 26 17 55 30 86 36 9 2 15 10 15 19v33h80v-33c0-9 6-17 15-19 30-6 59-19 86-36 7-5 17-4 23 3l23 23 57-58-23-23c-6-7-7-17-3-24 18-27 29-57 36-88 2-9 10-15 18-15h33v-81h-33c-8 0-16-7-18-16-6-31-18-60-36-87-4-8-3-18 3-24l23-24-57-57-23 23c-6 6-16 8-23 3-27-18-56-30-86-37-9-2-15-9-15-18v-34h-80v34c0 9-6 16-15 18-31 7-60 19-86 37z m296 222c0 88-69 159-155 159-86 0-156-71-156-159 0-87 70-158 156-158 86 0 155 71 155 158z m-273 0c0 66 53 120 118 120 65 0 118-54 118-120 0-66-53-120-118-120-65 0-118 54-118 120z m291 419c5 0 10 2 14 5 3 4 5 9 5 14 0 5-2 10-5 13-4 4-9 6-14 6-5 0-10-2-13-6-4-3-6-8-6-13 0-5 2-10 6-14 3-3 8-5 13-5z m-346-838c-5 0-9-2-13-5-3-4-5-9-5-14 0-5 2-10 5-13 4-4 8-6 13-6 5 0 10 2 14 6 3 3 5 8 5 13 0 5-2 10-5 14-4 3-9 5-14 5z" horiz-adv-x="982" />

<glyph glyph-name="a5" unicode="&#xe808;" d="M807 714h37v31h-77c-4 0-8-2-11-5-3-2-4-6-4-10v-77h30v42c87-69 145-168 163-278 18-109-6-221-66-314-61-93-154-160-261-188-108-28-221-15-320 37l-14-27c104-55 225-69 340-40 114 29 213 100 278 198 65 99 92 217 74 334-18 117-78 223-169 297z m-577-717c-87 69-145 168-163 277-18 110 5 222 66 315 61 93 154 160 261 188 108 28 222 15 320-37l14 27c-104 55-225 69-339 39-114-29-214-99-279-198-65-98-91-217-74-333 18-117 78-223 169-298h-37v-30h77c4 0 8 1 11 4 3 3 5 7 5 11v77h-31v-42z m-77 349c0-70 21-138 60-196 38-58 93-104 158-130 65-27 136-34 204-21 68 14 131 48 181 97 49 50 83 112 96 181 14 68 7 139-20 204-26 64-72 120-130 158-58 39-126 60-196 60-94 0-183-37-250-104-66-66-103-156-103-249z m675 0c0-64-18-126-54-179-35-53-86-95-145-119-58-24-123-31-186-18-62 12-120 43-165 88-45 45-76 102-88 165-12 62-6 127 18 186 25 59 66 109 119 145 53 35 115 54 179 54 86 0 168-34 228-94 61-61 94-143 94-228z m-614 0c0-58 18-114 50-162 32-48 77-86 131-108 53-22 111-28 168-16 57 11 109 39 149 80 41 40 69 92 80 149 11 56 6 115-16 168-22 54-60 99-108 131-48 32-104 49-162 49-77 0-151-30-206-85-55-55-86-129-86-206z m457 142l30 31c39-44 63-99 66-158h-46v-31h46c-3-58-26-114-65-157l-31 30-22-21 31-31c-44-39-100-63-159-66v46h-30v-46c-59 3-114 26-158 65l31 31-22 22-31-31c-39 44-62 100-65 158h45v31h-45c3 59 26 114 65 158l31-31 22 22-31 31c44 39 99 62 158 65v-45h30v45c59-3 114-26 158-65l-31-31 23-22z m-150 42h-30v-184c0-2 0-4 1-6 1-2 2-4 3-5l92-92 22 22-88 87v178z" horiz-adv-x="1000" />

<glyph glyph-name="clock" unicode="&#xe809;" d="M505 820c-262 0-475-213-475-475 0-262 213-475 475-475 262 0 475 213 475 475 0 262-213 475-475 475z m0-849c-206 0-374 168-374 374 0 206 168 374 374 374 206 0 374-168 374-374 0-206-168-374-374-374z m248 388h-214v257c0 22-17 39-39 39-21 0-39-17-39-39v-296c0-21 18-39 39-39h253c21 0 39 18 39 39 0 22-18 39-39 39z" horiz-adv-x="1000" />

<glyph glyph-name="double-arrow" unicode="&#xe80a;" d="M740 804c-34 34-89 34-123 0l-553-553c-34-34-34-89 0-123 33-34 89-34 122 0l492 492 492-492c34-34 89-34 123 0 34 34 34 89 0 123l-553 553z m25-136l0 75-174 0 0-75 174 0z m-56-467c-17 17-44 17-61 0l-277-277c-17-17-17-44 0-61 17-17 44-17 61 0l246 246 246-246c17-17 45-17 62 0 17 17 17 44 0 61l-277 277z m13-106l0 75-87 0 0-75 87 0z" horiz-adv-x="1348" />

<glyph glyph-name="insta" unicode="&#xe80b;" d="M577 350c0-51-42-93-93-93-51 0-93 42-93 93 0 51 42 93 93 93 51 0 93-42 93-93z m124 164c-5 12-12 23-21 32-9 9-20 16-32 21-10 3-25 8-52 9-29 2-38 2-112 2-74 0-83 0-112-2-27-1-42-6-52-9-12-5-23-12-32-21-9-9-16-20-21-32-3-10-8-25-9-52-2-29-2-38-2-112 0-74 0-83 2-112 1-27 6-42 9-52 5-12 12-23 21-32 9-9 20-16 32-21 10-3 25-8 52-9 29-1 38-2 112-2 74 0 83 1 112 2 27 1 42 6 52 9 24 10 43 29 53 53 3 10 8 25 9 52 1 29 2 38 2 112 0 74-1 83-2 112-1 27-6 42-9 52z m-217-307c-79 0-143 64-143 143 0 79 64 143 143 143 79 0 143-64 143-143 0-79-64-143-143-143z m148 258c-18 0-33 15-33 33 0 19 15 34 33 34 19 0 34-15 34-34 0-18-15-33-34-33z m-148 369c-267 0-484-217-484-484 0-267 217-484 484-484 267 0 484 217 484 484 0 267-217 484-484 484z m276-599c-1-29-6-49-13-67-14-37-44-67-81-81-18-7-38-12-68-13-29-1-39-2-114-2-76 0-85 1-115 2-29 1-49 6-67 13-19 7-35 18-49 32-14 14-25 31-32 49-7 18-12 38-13 67-2 30-2 40-2 115 0 76 0 85 2 115 1 29 6 49 13 67 7 19 18 35 32 49 14 14 30 25 49 32 18 7 38 12 67 13 30 2 39 2 115 2 75 0 85 0 114-2 30-1 50-6 68-13 18-7 35-18 49-32 14-14 25-30 32-49 7-18 12-38 13-67 1-30 2-39 2-115 0-75-1-85-2-115z" horiz-adv-x="968" />

<glyph glyph-name="basket" unicode="&#xe80c;" d="M713-9c66 0 119 53 119 119v74c17 6 30 23 30 43 0 24-20 44-44 44-25 0-45-20-45-44 0-20 13-37 30-43v-74c0-50-40-90-90-90-49 0-90 40-90 90v74c18 6 30 23 30 43 0 24-20 44-44 44-25 0-45-20-45-44 0-20 13-37 31-43v-74c0-66 53-119 118-119z m105 252c8 0 16-8 16-16 0-9-8-17-16-17-9 0-17 8-17 17 0 8 8 16 17 16z m-209 0c9 0 16-8 16-16 0-9-7-17-16-17-9 0-16 8-16 17 0 8 7 16 16 16z m-537-370h843c22 0 39 19 36 41l-16 152c-1 7-8 13-16 12-8-1-14-8-13-15l17-152c0-5-3-9-8-9h-403 0c-5 0-9 4-8 9l41 374c0 5 4 8 8 8h321c4 0 7-3 8-8l17-156c1-8 8-14 16-13 8 1 13 8 12 16l-17 157c-2 18-17 32-36 32h-158l-21 201c-3 25-24 44-50 44h-56v81c0 109-89 198-198 198-109 0-198-89-198-198v-81h-57c-25 0-46-19-49-44l-65-594c-3-29 20-55 50-55z m-22 52l65 594c2 10 11 19 21 19h57v-53c-19-6-32-24-32-45 0-25 21-46 46-46 26 0 47 21 47 46 0 21-14 39-32 45v53h136c8 0 14 6 14 14 0 8-6 14-14 14h-136v81c0 94 75 170 169 170 93 0 169-76 169-170v-81h-136c-8 0-14-6-14-14 0-8 6-14 14-14h136v-53c-18-6-32-24-32-45 0-25 21-46 46-46 26 0 47 21 47 46 0 21-14 39-32 45v53h56c11 0 20-9 21-19l22-198h-135c-19 0-35-14-37-32l-41-375c0-4 0-9 1-12h-404c-13 0-23 11-22 23z m157 533c10 0 18-8 18-18 0-9-8-17-18-17-10 0-18 8-18 17 0 10 8 18 18 18z m367 0c10 0 18-8 18-18 0-9-8-17-18-17-9 0-17 8-17 17 0 10 8 18 17 18z" horiz-adv-x="973" />

<glyph glyph-name="list" unicode="&#xe80d;" d="M956 712c-14 14-37 14-51 0l-438-437-158 172c-13 15-36 16-51 2-15-14-16-37-2-52l183-199c7-7 16-12 26-12 1 0 1 0 1 0 10 0 19 4 26 11l464 463c15 14 15 37 0 52z m-8-315c-21 0-37-17-37-37 0-227-184-411-411-411-226 0-411 184-411 411 0 227 185 411 411 411 20 0 37 16 37 36 0 21-17 37-37 37-267 0-484-217-484-484 0-267 217-484 484-484 267 0 484 217 484 484 0 20-16 37-36 37z" horiz-adv-x="1000" />

<glyph glyph-name="insta2" unicode="&#xe80e;" d="M724 836l-440 0c-143 0-260-117-260-260l0-441c0-143 117-260 260-260l440 0c144 0 260 117 260 260l0 441c0 143-116 260-260 260v0z m-220-743c-145 0-262 118-262 263 0 144 117 262 262 262 145 0 263-118 263-262 0-145-118-263-263-263z m269 463c-43 0-78 35-78 78 0 42 35 77 78 77 43 0 77-35 77-77 0-43-34-78-77-78z m-269 6c-114 0-206-93-206-206 0-114 92-207 206-207 114 0 206 93 206 207 0 113-92 206-206 206z m269 93c-12 0-21-10-21-21 0-12 9-22 21-22 12 0 21 10 21 22 0 11-9 21-21 21z" horiz-adv-x="1000" />

<glyph glyph-name="mail" unicode="&#xe80f;" d="M1140 826h-1030c-61 0-110-49-110-110v-732c0-61 49-110 110-110h1030c61 0 110 49 110 110v732c0 61-49 110-110 110z m-15-73l-498-498-502 498h1000z m-1052-754v702l353-349-353-353z m52-52l353 353 124-122c14-15 37-15 51 0l121 120 351-351h-1000z m1052 52l-351 351 351 351v-702z" horiz-adv-x="1250" />

<glyph glyph-name="mail2" unicode="&#xe810;" d="M897 701h-785c-12 0-25-3-35-8l426-427 96 92c0 0 0 0 0 0 0 0 0 0 0 0l334 335c-11 5-23 8-36 8z m76-48l-315-315 315-315c5 11 8 23 8 36v558c0 13-3 25-8 36z m-936 0c-5-11-8-23-8-36v-558c0-13 3-25 8-36l315 315-315 315z m581-354l-95-92c-6-5-13-8-20-8-7 0-14 3-20 8l-92 92-314-315c10-5 23-8 35-8h785c13 0 25 3 36 8l-315 315z" horiz-adv-x="1000" />

<glyph glyph-name="point" unicode="&#xe811;" d="M504 831c-175 0-318-143-318-319 0-53 13-105 38-151l263-476c4-7 10-11 17-11 8 0 14 4 18 11l263 476c25 46 38 98 38 151 0 176-143 319-319 319z m0-478c-87 0-159 71-159 159 0 88 72 159 159 159 88 0 160-71 160-159 0-88-72-159-160-159z" horiz-adv-x="1000" />

<glyph glyph-name="play" unicode="&#xe812;" d="M859 342l-848-489 0 979 848-490z" horiz-adv-x="867" />

<glyph glyph-name="search" unicode="&#xe813;" d="M561 442h-93v95c0 12-10 22-22 22-13 0-23-10-23-22v-95h-95c-12 0-22-10-22-22 0-13 10-23 22-23h95v-93c0-13 10-23 23-23 12 0 22 10 22 23v93h93c13 0 23 10 23 23 0 12-10 22-23 22z m123 219c-132 132-348 132-480 0-132-132-132-347 0-480 133-132 348-132 480 0 132 132 132 348 0 480z m-32-448c-114-115-301-115-416 0-115 115-115 302 0 416 115 115 301 115 416 0 115-114 115-301 0-416z m339-222c0 0 0 0-1 0l-190 191c132 197 80 463-117 595-196 132-463 80-595-117-132-196-79-463 117-595 62-42 134-66 209-72 10 0 20-1 30-1 85 0 168 25 239 73l190-190c32-33 85-33 117-1 33 32 33 84 1 117z m-319 121c-171-126-411-90-537 81-126 170-90 411 80 537 171 126 412 90 538-80 101-136 101-322 0-458-23-30-50-57-81-80z m287-206c-7-7-17-11-27-11-10 0-20 4-27 11l-186 186c10 8 19 16 29 26 9 9 17 18 25 28l186-186c15-15 15-39 0-54z" horiz-adv-x="1029" />

<glyph glyph-name="right-open" unicode="&#xf006;" d="M0 0q0 25 18 43l305 304-305 304q-18 18-18 44t18 43 44 18 43-18l390-391-390-391q-19-18-43-18t-44 18q-18 18-18 44z" horiz-adv-x="495.1" />

<glyph glyph-name="left-open" unicode="&#xf007;" d="M0 353l391 391q18 18 43 18 24 0 43-18 18-18 18-44t-18-43l-304-304 304-305q18-17 18-43t-18-43q-18-18-43-18t-43 18z" horiz-adv-x="495.1" />

<glyph glyph-name="rouble" unicode="&#xf158;" d="M582 535q0 56-36 90t-96 35h-178v-250h178q60 0 96 34t36 91z m132 0q0-108-70-176t-182-68h-190v-66h282q7 0 12-5t5-13v-71q0-8-5-13t-12-5h-282v-107q0-8-5-13t-13-5h-93q-8 0-13 5t-5 13v107h-125q-8 0-13 5t-5 13v71q0 8 5 13t13 5h125v66h-125q-8 0-13 5t-5 13v83q0 7 5 12t13 6h125v351q0 8 5 13t13 5h301q111 0 182-68t70-176z" horiz-adv-x="714.3" />
</font>
</defs>
</svg>
